<mxfile host="Electron" modified="2024-04-15T13:20:08.107Z" agent="Mozilla/5.0 (Windows NT 10.0; Win64; x64) AppleWebKit/537.36 (KHTML, like Gecko) draw.io/24.1.0 Chrome/120.0.6099.109 Electron/28.1.0 Safari/537.36" etag="EcqNOV4O-dS_HIKaVQub" version="24.1.0" type="device" pages="13">
  <diagram name="BFD Mức 1" id="qs6rBLlf0poWx1rhJ2QM">
    <mxGraphModel dx="5834" dy="2084" grid="1" gridSize="10" guides="1" tooltips="1" connect="1" arrows="1" fold="1" page="0" pageScale="1" pageWidth="827" pageHeight="1169" math="0" shadow="0">
      <root>
        <mxCell id="0" />
        <mxCell id="1" parent="0" />
        <mxCell id="VxYQ9d9BpY5WHUv55COF-1" style="edgeStyle=orthogonalEdgeStyle;rounded=0;orthogonalLoop=1;jettySize=auto;html=1;" parent="1" source="VxYQ9d9BpY5WHUv55COF-7" target="VxYQ9d9BpY5WHUv55COF-43" edge="1">
          <mxGeometry relative="1" as="geometry">
            <Array as="points">
              <mxPoint x="-3730" y="-1080" />
              <mxPoint x="-3750" y="-1080" />
            </Array>
          </mxGeometry>
        </mxCell>
        <mxCell id="VxYQ9d9BpY5WHUv55COF-2" style="edgeStyle=orthogonalEdgeStyle;rounded=0;orthogonalLoop=1;jettySize=auto;html=1;" parent="1" source="VxYQ9d9BpY5WHUv55COF-7" target="VxYQ9d9BpY5WHUv55COF-11" edge="1">
          <mxGeometry relative="1" as="geometry">
            <Array as="points">
              <mxPoint x="-3730" y="-1080" />
              <mxPoint x="-3640" y="-1080" />
            </Array>
          </mxGeometry>
        </mxCell>
        <mxCell id="VxYQ9d9BpY5WHUv55COF-3" style="edgeStyle=orthogonalEdgeStyle;rounded=0;orthogonalLoop=1;jettySize=auto;html=1;" parent="1" source="VxYQ9d9BpY5WHUv55COF-7" target="VxYQ9d9BpY5WHUv55COF-12" edge="1">
          <mxGeometry relative="1" as="geometry">
            <Array as="points">
              <mxPoint x="-3730" y="-1080" />
              <mxPoint x="-3540" y="-1080" />
            </Array>
          </mxGeometry>
        </mxCell>
        <mxCell id="VxYQ9d9BpY5WHUv55COF-4" style="edgeStyle=orthogonalEdgeStyle;rounded=0;orthogonalLoop=1;jettySize=auto;html=1;" parent="1" source="VxYQ9d9BpY5WHUv55COF-7" target="VxYQ9d9BpY5WHUv55COF-10" edge="1">
          <mxGeometry relative="1" as="geometry">
            <Array as="points">
              <mxPoint x="-3730" y="-1080" />
              <mxPoint x="-3865" y="-1080" />
            </Array>
          </mxGeometry>
        </mxCell>
        <mxCell id="VxYQ9d9BpY5WHUv55COF-5" style="edgeStyle=orthogonalEdgeStyle;rounded=0;orthogonalLoop=1;jettySize=auto;html=1;" parent="1" source="VxYQ9d9BpY5WHUv55COF-7" target="VxYQ9d9BpY5WHUv55COF-9" edge="1">
          <mxGeometry relative="1" as="geometry">
            <Array as="points">
              <mxPoint x="-3730" y="-1080" />
              <mxPoint x="-3975" y="-1080" />
            </Array>
          </mxGeometry>
        </mxCell>
        <mxCell id="VxYQ9d9BpY5WHUv55COF-6" style="edgeStyle=orthogonalEdgeStyle;rounded=0;orthogonalLoop=1;jettySize=auto;html=1;" parent="1" source="VxYQ9d9BpY5WHUv55COF-7" target="VxYQ9d9BpY5WHUv55COF-8" edge="1">
          <mxGeometry relative="1" as="geometry">
            <Array as="points">
              <mxPoint x="-3730" y="-1080" />
              <mxPoint x="-4080" y="-1080" />
            </Array>
          </mxGeometry>
        </mxCell>
        <mxCell id="VxYQ9d9BpY5WHUv55COF-7" value="&lt;font size=&quot;1&quot; style=&quot;&quot;&gt;&lt;b style=&quot;font-size: 16px;&quot;&gt;Cửa hàng tiện lợi - Mini Store&lt;/b&gt;&lt;/font&gt;" style="rounded=0;whiteSpace=wrap;html=1;" parent="1" vertex="1">
          <mxGeometry x="-3810" y="-1160" width="160" height="50" as="geometry" />
        </mxCell>
        <mxCell id="VxYQ9d9BpY5WHUv55COF-8" value="Thao tác&amp;nbsp;&lt;div&gt;bán hàng&lt;/div&gt;" style="rounded=0;whiteSpace=wrap;html=1;fontSize=13;spacingTop=4;spacing=4;spacingRight=4;spacingBottom=4;spacingLeft=4;" parent="1" vertex="1">
          <mxGeometry x="-4130" y="-1050" width="90" height="40" as="geometry" />
        </mxCell>
        <mxCell id="VxYQ9d9BpY5WHUv55COF-9" value="Quản lý hóa đơn" style="whiteSpace=wrap;html=1;rounded=0;fontSize=13;spacingTop=4;spacing=4;spacingRight=4;spacingBottom=4;spacingLeft=4;" parent="1" vertex="1">
          <mxGeometry x="-4020" y="-1050" width="90" height="40" as="geometry" />
        </mxCell>
        <mxCell id="VxYQ9d9BpY5WHUv55COF-10" value="Quản lý nhân viên" style="whiteSpace=wrap;html=1;rounded=0;fontSize=13;spacingTop=4;spacing=4;spacingRight=4;spacingBottom=4;spacingLeft=4;" parent="1" vertex="1">
          <mxGeometry x="-3910" y="-1050" width="90" height="40" as="geometry" />
        </mxCell>
        <mxCell id="VxYQ9d9BpY5WHUv55COF-11" value="Quản lý mặt hàng" style="whiteSpace=wrap;html=1;rounded=0;fontSize=13;spacingTop=4;spacing=4;spacingRight=4;spacingBottom=4;spacingLeft=4;" parent="1" vertex="1">
          <mxGeometry x="-3690" y="-1049" width="90" height="39" as="geometry" />
        </mxCell>
        <mxCell id="VxYQ9d9BpY5WHUv55COF-12" value="Quản lý nhập hàng" style="whiteSpace=wrap;html=1;rounded=0;fontSize=13;spacingTop=4;spacing=4;spacingRight=4;spacingBottom=4;spacingLeft=4;" parent="1" vertex="1">
          <mxGeometry x="-3580" y="-1050" width="90" height="40" as="geometry" />
        </mxCell>
        <mxCell id="VxYQ9d9BpY5WHUv55COF-43" value="Quản lý khách hàng" style="whiteSpace=wrap;html=1;rounded=0;fontSize=13;spacingTop=4;spacing=4;spacingRight=4;spacingBottom=4;spacingLeft=4;" parent="1" vertex="1">
          <mxGeometry x="-3800" y="-1050" width="90" height="40" as="geometry" />
        </mxCell>
        <mxCell id="VxYQ9d9BpY5WHUv55COF-76" value="Quản lý&amp;nbsp;&lt;div&gt;phiếu nhập&lt;/div&gt;" style="whiteSpace=wrap;html=1;rounded=0;fontSize=13;spacingTop=4;spacing=4;spacingRight=4;spacingBottom=4;spacingLeft=4;" parent="1" vertex="1">
          <mxGeometry x="-3470" y="-1049" width="90" height="39" as="geometry" />
        </mxCell>
        <mxCell id="VxYQ9d9BpY5WHUv55COF-78" style="edgeStyle=orthogonalEdgeStyle;rounded=0;orthogonalLoop=1;jettySize=auto;html=1;" parent="1" source="VxYQ9d9BpY5WHUv55COF-7" target="VxYQ9d9BpY5WHUv55COF-76" edge="1">
          <mxGeometry relative="1" as="geometry">
            <Array as="points">
              <mxPoint x="-3730" y="-1080" />
              <mxPoint x="-3420" y="-1080" />
            </Array>
            <mxPoint x="-3720" y="-1100" as="sourcePoint" />
            <mxPoint x="-3370" y="-1039" as="targetPoint" />
          </mxGeometry>
        </mxCell>
      </root>
    </mxGraphModel>
  </diagram>
  <diagram id="ByYMlV3hnD-0s2xM5KQr" name="BFD Mức 2">
    <mxGraphModel dx="5185" dy="1838" grid="1" gridSize="10" guides="1" tooltips="1" connect="1" arrows="1" fold="1" page="1" pageScale="1" pageWidth="827" pageHeight="1169" math="0" shadow="0">
      <root>
        <mxCell id="0" />
        <mxCell id="1" parent="0" />
        <mxCell id="Q_odpXwVn9oltR_Ve3df-1" style="edgeStyle=orthogonalEdgeStyle;rounded=0;orthogonalLoop=1;jettySize=auto;html=1;" parent="1" source="Q_odpXwVn9oltR_Ve3df-8" target="Q_odpXwVn9oltR_Ve3df-48" edge="1">
          <mxGeometry relative="1" as="geometry">
            <Array as="points">
              <mxPoint x="-3730" y="-1080" />
              <mxPoint x="-3750" y="-1080" />
            </Array>
          </mxGeometry>
        </mxCell>
        <mxCell id="Q_odpXwVn9oltR_Ve3df-2" style="edgeStyle=orthogonalEdgeStyle;rounded=0;orthogonalLoop=1;jettySize=auto;html=1;" parent="1" source="Q_odpXwVn9oltR_Ve3df-8" target="Q_odpXwVn9oltR_Ve3df-12" edge="1">
          <mxGeometry relative="1" as="geometry">
            <Array as="points">
              <mxPoint x="-3730" y="-1080" />
              <mxPoint x="-3640" y="-1080" />
            </Array>
          </mxGeometry>
        </mxCell>
        <mxCell id="Q_odpXwVn9oltR_Ve3df-3" style="edgeStyle=orthogonalEdgeStyle;rounded=0;orthogonalLoop=1;jettySize=auto;html=1;" parent="1" source="Q_odpXwVn9oltR_Ve3df-8" target="Q_odpXwVn9oltR_Ve3df-13" edge="1">
          <mxGeometry relative="1" as="geometry">
            <Array as="points">
              <mxPoint x="-3730" y="-1080" />
              <mxPoint x="-3540" y="-1080" />
            </Array>
          </mxGeometry>
        </mxCell>
        <mxCell id="Q_odpXwVn9oltR_Ve3df-5" style="edgeStyle=orthogonalEdgeStyle;rounded=0;orthogonalLoop=1;jettySize=auto;html=1;" parent="1" source="Q_odpXwVn9oltR_Ve3df-8" target="Q_odpXwVn9oltR_Ve3df-11" edge="1">
          <mxGeometry relative="1" as="geometry">
            <Array as="points">
              <mxPoint x="-3730" y="-1080" />
              <mxPoint x="-3865" y="-1080" />
            </Array>
          </mxGeometry>
        </mxCell>
        <mxCell id="Q_odpXwVn9oltR_Ve3df-6" style="edgeStyle=orthogonalEdgeStyle;rounded=0;orthogonalLoop=1;jettySize=auto;html=1;" parent="1" source="Q_odpXwVn9oltR_Ve3df-8" target="Q_odpXwVn9oltR_Ve3df-10" edge="1">
          <mxGeometry relative="1" as="geometry">
            <Array as="points">
              <mxPoint x="-3730" y="-1080" />
              <mxPoint x="-3975" y="-1080" />
            </Array>
          </mxGeometry>
        </mxCell>
        <mxCell id="Q_odpXwVn9oltR_Ve3df-7" style="edgeStyle=orthogonalEdgeStyle;rounded=0;orthogonalLoop=1;jettySize=auto;html=1;" parent="1" source="Q_odpXwVn9oltR_Ve3df-8" target="Q_odpXwVn9oltR_Ve3df-9" edge="1">
          <mxGeometry relative="1" as="geometry">
            <Array as="points">
              <mxPoint x="-3730" y="-1080" />
              <mxPoint x="-4080" y="-1080" />
            </Array>
          </mxGeometry>
        </mxCell>
        <mxCell id="Q_odpXwVn9oltR_Ve3df-8" value="&lt;font size=&quot;1&quot; style=&quot;&quot;&gt;&lt;b style=&quot;font-size: 16px;&quot;&gt;Cửa hàng tiện lợi - Mini Store&lt;/b&gt;&lt;/font&gt;" style="rounded=0;whiteSpace=wrap;html=1;" parent="1" vertex="1">
          <mxGeometry x="-3810" y="-1160" width="160" height="50" as="geometry" />
        </mxCell>
        <mxCell id="Q_odpXwVn9oltR_Ve3df-9" value="1. Thao tác&amp;nbsp;&lt;div&gt;bán hàng&lt;/div&gt;" style="rounded=0;whiteSpace=wrap;html=1;fontSize=13;spacingTop=4;spacing=4;spacingRight=4;spacingBottom=4;spacingLeft=4;" parent="1" vertex="1">
          <mxGeometry x="-4130" y="-1050" width="90" height="40" as="geometry" />
        </mxCell>
        <mxCell id="Q_odpXwVn9oltR_Ve3df-10" value="2. Quản lý hóa đơn" style="whiteSpace=wrap;html=1;rounded=0;fontSize=13;spacingTop=4;spacing=4;spacingRight=4;spacingBottom=4;spacingLeft=4;" parent="1" vertex="1">
          <mxGeometry x="-4020" y="-1050" width="90" height="40" as="geometry" />
        </mxCell>
        <mxCell id="Q_odpXwVn9oltR_Ve3df-11" value="3. Quản lý nhân viên" style="whiteSpace=wrap;html=1;rounded=0;fontSize=13;spacingTop=4;spacing=4;spacingRight=4;spacingBottom=4;spacingLeft=4;" parent="1" vertex="1">
          <mxGeometry x="-3910" y="-1050" width="90" height="40" as="geometry" />
        </mxCell>
        <mxCell id="Q_odpXwVn9oltR_Ve3df-12" value="5. Quản lý mặt hàng" style="whiteSpace=wrap;html=1;rounded=0;fontSize=13;spacingTop=4;spacing=4;spacingRight=4;spacingBottom=4;spacingLeft=4;" parent="1" vertex="1">
          <mxGeometry x="-3690" y="-1049" width="90" height="39" as="geometry" />
        </mxCell>
        <mxCell id="Q_odpXwVn9oltR_Ve3df-13" value="6. Quản lý nhập hàng" style="whiteSpace=wrap;html=1;rounded=0;fontSize=13;spacingTop=4;spacing=4;spacingRight=4;spacingBottom=4;spacingLeft=4;" parent="1" vertex="1">
          <mxGeometry x="-3580" y="-1050" width="90" height="40" as="geometry" />
        </mxCell>
        <mxCell id="Q_odpXwVn9oltR_Ve3df-15" value="&lt;font style=&quot;font-size: 12px;&quot;&gt;1.1. Tìm kiếm mặt hàng&lt;/font&gt;" style="whiteSpace=wrap;html=1;rounded=0;align=left;spacingLeft=4;spacing=4;spacingTop=4;spacingBottom=4;spacingRight=4;fontSize=12;" parent="1" vertex="1">
          <mxGeometry x="-4110" y="-990" width="90" height="40" as="geometry" />
        </mxCell>
        <mxCell id="Q_odpXwVn9oltR_Ve3df-16" value="1.3. Lập/Huỷ hóa đơn" style="whiteSpace=wrap;html=1;rounded=0;align=left;spacingLeft=4;spacing=4;spacingTop=4;spacingBottom=4;spacingRight=4;fontSize=12;" parent="1" vertex="1">
          <mxGeometry x="-4110" y="-830" width="90" height="40" as="geometry" />
        </mxCell>
        <mxCell id="Q_odpXwVn9oltR_Ve3df-17" value="1.2. Tăng/Giảm số lượng sản phẩm trong giỏ hàng" style="whiteSpace=wrap;html=1;rounded=0;align=left;spacingLeft=4;spacing=4;spacingTop=4;spacingBottom=4;spacingRight=4;fontSize=12;" parent="1" vertex="1">
          <mxGeometry x="-4110" y="-930" width="90" height="80" as="geometry" />
        </mxCell>
        <mxCell id="Q_odpXwVn9oltR_Ve3df-18" value="2.2. Xem chi tiết hoá đơn" style="whiteSpace=wrap;html=1;rounded=0;align=left;spacingLeft=4;spacing=4;spacingTop=4;spacingBottom=4;spacingRight=4;fontSize=12;" parent="1" vertex="1">
          <mxGeometry x="-4000" y="-870" width="90" height="40" as="geometry" />
        </mxCell>
        <mxCell id="Q_odpXwVn9oltR_Ve3df-19" value="2.1.&amp;nbsp; Tìm kiếm hóa đơn dựa theo mã nhân viên/mã khách hàng/mã hoá đơn" style="whiteSpace=wrap;html=1;rounded=0;align=left;spacingLeft=4;spacing=4;spacingTop=4;spacingBottom=4;spacingRight=4;fontSize=12;" parent="1" vertex="1">
          <mxGeometry x="-4000" y="-990" width="90" height="100" as="geometry" />
        </mxCell>
        <mxCell id="Q_odpXwVn9oltR_Ve3df-20" value="3.1. Thêm nhân viên" style="whiteSpace=wrap;html=1;rounded=0;align=left;spacingLeft=4;spacing=4;spacingTop=4;spacingBottom=4;spacingRight=4;fontSize=12;" parent="1" vertex="1">
          <mxGeometry x="-3890" y="-990" width="90" height="40" as="geometry" />
        </mxCell>
        <mxCell id="Q_odpXwVn9oltR_Ve3df-21" value="3.4. Tìm hoá đơn mà nhân viên đã bán" style="whiteSpace=wrap;html=1;rounded=0;align=left;spacingLeft=4;spacing=4;spacingTop=4;spacingBottom=4;spacingRight=4;fontSize=12;" parent="1" vertex="1">
          <mxGeometry x="-3890" y="-810" width="90" height="60" as="geometry" />
        </mxCell>
        <mxCell id="Q_odpXwVn9oltR_Ve3df-22" value="3.5. Tìm kiếm nhân viên" style="whiteSpace=wrap;html=1;rounded=0;align=left;spacingLeft=4;spacing=4;spacingTop=4;spacingBottom=4;spacingRight=4;fontSize=12;" parent="1" vertex="1">
          <mxGeometry x="-3890" y="-730" width="90" height="40" as="geometry" />
        </mxCell>
        <mxCell id="Q_odpXwVn9oltR_Ve3df-24" value="3.3. Xóa nhân viên" style="whiteSpace=wrap;html=1;rounded=0;align=left;spacingLeft=4;spacing=4;spacingTop=4;spacingBottom=4;spacingRight=4;fontSize=12;" parent="1" vertex="1">
          <mxGeometry x="-3890" y="-870" width="90" height="40" as="geometry" />
        </mxCell>
        <mxCell id="Q_odpXwVn9oltR_Ve3df-25" value="3.2. Sửa nhân viên" style="whiteSpace=wrap;html=1;rounded=0;align=left;spacingLeft=4;spacing=4;spacingTop=4;spacingBottom=4;spacingRight=4;fontSize=12;" parent="1" vertex="1">
          <mxGeometry x="-3890" y="-930" width="90" height="40" as="geometry" />
        </mxCell>
        <mxCell id="Q_odpXwVn9oltR_Ve3df-26" value="5.1. Kiểm tra tồn kho" style="whiteSpace=wrap;html=1;rounded=0;align=left;spacingLeft=4;spacing=4;spacingTop=4;spacingBottom=4;spacingRight=4;fontSize=12;" parent="1" vertex="1">
          <mxGeometry x="-3670" y="-990" width="90" height="40" as="geometry" />
        </mxCell>
        <mxCell id="Q_odpXwVn9oltR_Ve3df-27" value="5.2. Thêm sản phẩm mới" style="whiteSpace=wrap;html=1;rounded=0;align=left;spacingLeft=4;spacing=4;spacingTop=4;spacingBottom=4;spacingRight=4;fontSize=12;" parent="1" vertex="1">
          <mxGeometry x="-3670" y="-930" width="90" height="50" as="geometry" />
        </mxCell>
        <mxCell id="Q_odpXwVn9oltR_Ve3df-28" value="5.4. Xoá sản phẩm" style="whiteSpace=wrap;html=1;rounded=0;align=left;spacingLeft=4;spacing=4;spacingTop=4;spacingBottom=4;spacingRight=4;fontSize=12;" parent="1" vertex="1">
          <mxGeometry x="-3670" y="-790" width="90" height="40" as="geometry" />
        </mxCell>
        <mxCell id="Q_odpXwVn9oltR_Ve3df-29" value="5.3. Sửa thông tin sản phẩm" style="whiteSpace=wrap;html=1;rounded=0;align=left;spacingLeft=4;spacing=4;spacingTop=4;spacingBottom=4;spacingRight=4;fontSize=12;" parent="1" vertex="1">
          <mxGeometry x="-3670" y="-860" width="90" height="50" as="geometry" />
        </mxCell>
        <mxCell id="Q_odpXwVn9oltR_Ve3df-30" value="6.2. Xoá mặt hàng nhập" style="whiteSpace=wrap;html=1;rounded=0;align=left;spacingLeft=4;spacing=4;spacingTop=4;spacingBottom=4;spacingRight=4;fontSize=12;" parent="1" vertex="1">
          <mxGeometry x="-3560" y="-910" width="90" height="40" as="geometry" />
        </mxCell>
        <mxCell id="Q_odpXwVn9oltR_Ve3df-31" value="6.4. Xác nhận/Huỷ đơn nhập hàng" style="whiteSpace=wrap;html=1;rounded=0;align=left;spacingLeft=4;spacing=4;spacingTop=4;spacingBottom=4;spacingRight=4;fontSize=12;" parent="1" vertex="1">
          <mxGeometry x="-3560" y="-780" width="90" height="50" as="geometry" />
        </mxCell>
        <mxCell id="Q_odpXwVn9oltR_Ve3df-32" value="6.1. Điều chỉnh số lượng hàng cần nhập" style="whiteSpace=wrap;html=1;rounded=0;align=left;spacingLeft=4;spacing=4;spacingTop=4;spacingBottom=4;spacingRight=4;fontSize=12;" parent="1" vertex="1">
          <mxGeometry x="-3560" y="-990" width="90" height="60" as="geometry" />
        </mxCell>
        <mxCell id="Q_odpXwVn9oltR_Ve3df-33" value="7.1. Tìm kiếm phiếu nhập" style="whiteSpace=wrap;html=1;rounded=0;align=left;spacingLeft=4;spacing=4;spacingTop=4;spacingBottom=4;spacingRight=4;fontSize=12;" parent="1" vertex="1">
          <mxGeometry x="-3450" y="-990" width="90" height="40" as="geometry" />
        </mxCell>
        <mxCell id="Q_odpXwVn9oltR_Ve3df-34" value="" style="endArrow=none;html=1;rounded=0;entryX=0.112;entryY=1;entryDx=0;entryDy=0;entryPerimeter=0;fontSize=13;spacingTop=4;spacing=4;spacingRight=4;spacingBottom=4;spacingLeft=4;" parent="1" target="Q_odpXwVn9oltR_Ve3df-9" edge="1">
          <mxGeometry width="50" height="50" relative="1" as="geometry">
            <mxPoint x="-4120" y="-810" as="sourcePoint" />
            <mxPoint x="-4125" y="-669" as="targetPoint" />
          </mxGeometry>
        </mxCell>
        <mxCell id="Q_odpXwVn9oltR_Ve3df-35" value="" style="endArrow=none;html=1;rounded=0;align=left;spacingLeft=4;spacing=4;spacingTop=4;spacingBottom=4;spacingRight=4;fontSize=12;" parent="1" target="Q_odpXwVn9oltR_Ve3df-15" edge="1">
          <mxGeometry width="50" height="50" relative="1" as="geometry">
            <mxPoint x="-4120" y="-970" as="sourcePoint" />
            <mxPoint x="-3985" y="-718" as="targetPoint" />
          </mxGeometry>
        </mxCell>
        <mxCell id="Q_odpXwVn9oltR_Ve3df-37" value="" style="endArrow=none;html=1;rounded=0;align=left;spacingLeft=4;spacing=4;spacingTop=4;spacingBottom=4;spacingRight=4;fontSize=12;" parent="1" target="Q_odpXwVn9oltR_Ve3df-16" edge="1">
          <mxGeometry width="50" height="50" relative="1" as="geometry">
            <mxPoint x="-4120" y="-810" as="sourcePoint" />
            <mxPoint x="-4065" y="-898" as="targetPoint" />
          </mxGeometry>
        </mxCell>
        <mxCell id="Q_odpXwVn9oltR_Ve3df-38" value="" style="endArrow=none;html=1;rounded=0;entryX=0.111;entryY=1.004;entryDx=0;entryDy=0;entryPerimeter=0;fontSize=13;spacingTop=4;spacing=4;spacingRight=4;spacingBottom=4;spacingLeft=4;" parent="1" target="Q_odpXwVn9oltR_Ve3df-10" edge="1">
          <mxGeometry width="50" height="50" relative="1" as="geometry">
            <mxPoint x="-4010" y="-850" as="sourcePoint" />
            <mxPoint x="-4045" y="-1069" as="targetPoint" />
          </mxGeometry>
        </mxCell>
        <mxCell id="Q_odpXwVn9oltR_Ve3df-39" value="" style="endArrow=none;html=1;rounded=0;align=left;spacingLeft=4;spacing=4;spacingTop=4;spacingBottom=4;spacingRight=4;fontSize=12;" parent="1" target="Q_odpXwVn9oltR_Ve3df-19" edge="1">
          <mxGeometry width="50" height="50" relative="1" as="geometry">
            <mxPoint x="-4010" y="-940" as="sourcePoint" />
            <mxPoint x="-3965" y="-968" as="targetPoint" />
          </mxGeometry>
        </mxCell>
        <mxCell id="Q_odpXwVn9oltR_Ve3df-40" value="" style="endArrow=none;html=1;rounded=0;align=left;spacingLeft=4;spacing=4;spacingTop=4;spacingBottom=4;spacingRight=4;fontSize=12;" parent="1" target="Q_odpXwVn9oltR_Ve3df-18" edge="1">
          <mxGeometry width="50" height="50" relative="1" as="geometry">
            <mxPoint x="-4010" y="-850" as="sourcePoint" />
            <mxPoint x="-3965" y="-878" as="targetPoint" />
          </mxGeometry>
        </mxCell>
        <mxCell id="Q_odpXwVn9oltR_Ve3df-41" value="" style="endArrow=none;html=1;rounded=0;entryX=0.107;entryY=0.995;entryDx=0;entryDy=0;entryPerimeter=0;fontSize=13;spacingTop=4;spacing=4;spacingRight=4;spacingBottom=4;spacingLeft=4;" parent="1" target="Q_odpXwVn9oltR_Ve3df-11" edge="1">
          <mxGeometry width="50" height="50" relative="1" as="geometry">
            <mxPoint x="-3900" y="-710" as="sourcePoint" />
            <mxPoint x="-3845" y="-759" as="targetPoint" />
          </mxGeometry>
        </mxCell>
        <mxCell id="Q_odpXwVn9oltR_Ve3df-42" value="" style="endArrow=none;html=1;rounded=0;align=left;spacingLeft=4;spacing=4;spacingTop=4;spacingBottom=4;spacingRight=4;fontSize=12;" parent="1" target="Q_odpXwVn9oltR_Ve3df-20" edge="1">
          <mxGeometry width="50" height="50" relative="1" as="geometry">
            <mxPoint x="-3900" y="-970" as="sourcePoint" />
            <mxPoint x="-3860" y="-968" as="targetPoint" />
          </mxGeometry>
        </mxCell>
        <mxCell id="Q_odpXwVn9oltR_Ve3df-43" value="" style="endArrow=none;html=1;rounded=0;align=left;spacingLeft=4;spacing=4;spacingTop=4;spacingBottom=4;spacingRight=4;fontSize=12;" parent="1" target="Q_odpXwVn9oltR_Ve3df-25" edge="1">
          <mxGeometry width="50" height="50" relative="1" as="geometry">
            <mxPoint x="-3900" y="-910" as="sourcePoint" />
            <mxPoint x="-3860" y="-878" as="targetPoint" />
          </mxGeometry>
        </mxCell>
        <mxCell id="Q_odpXwVn9oltR_Ve3df-44" value="" style="endArrow=none;html=1;rounded=0;align=left;spacingLeft=4;spacing=4;spacingTop=4;spacingBottom=4;spacingRight=4;fontSize=12;" parent="1" target="Q_odpXwVn9oltR_Ve3df-24" edge="1">
          <mxGeometry width="50" height="50" relative="1" as="geometry">
            <mxPoint x="-3900" y="-850" as="sourcePoint" />
            <mxPoint x="-3860" y="-788" as="targetPoint" />
          </mxGeometry>
        </mxCell>
        <mxCell id="Q_odpXwVn9oltR_Ve3df-45" value="" style="endArrow=none;html=1;rounded=0;align=left;spacingLeft=4;spacing=4;spacingTop=4;spacingBottom=4;spacingRight=4;fontSize=12;" parent="1" target="Q_odpXwVn9oltR_Ve3df-21" edge="1">
          <mxGeometry width="50" height="50" relative="1" as="geometry">
            <mxPoint x="-3900" y="-780" as="sourcePoint" />
            <mxPoint x="-3850" y="-798" as="targetPoint" />
          </mxGeometry>
        </mxCell>
        <mxCell id="Q_odpXwVn9oltR_Ve3df-46" value="" style="endArrow=none;html=1;rounded=0;align=left;spacingLeft=4;spacing=4;spacingTop=4;spacingBottom=4;spacingRight=4;fontSize=12;" parent="1" target="Q_odpXwVn9oltR_Ve3df-22" edge="1">
          <mxGeometry width="50" height="50" relative="1" as="geometry">
            <mxPoint x="-3900" y="-709" as="sourcePoint" />
            <mxPoint x="-3840" y="-788" as="targetPoint" />
          </mxGeometry>
        </mxCell>
        <mxCell id="Q_odpXwVn9oltR_Ve3df-48" value="4. Quản lý khách hàng" style="whiteSpace=wrap;html=1;rounded=0;fontSize=13;spacingTop=4;spacing=4;spacingRight=4;spacingBottom=4;spacingLeft=4;" parent="1" vertex="1">
          <mxGeometry x="-3800" y="-1050" width="90" height="40" as="geometry" />
        </mxCell>
        <mxCell id="Q_odpXwVn9oltR_Ve3df-49" value="4.2. Thêm thông tin khách hàng" style="whiteSpace=wrap;html=1;rounded=0;align=left;spacingLeft=4;spacing=4;spacingTop=4;spacingBottom=4;spacingRight=4;fontSize=12;" parent="1" vertex="1">
          <mxGeometry x="-3780" y="-920" width="90" height="50" as="geometry" />
        </mxCell>
        <mxCell id="Q_odpXwVn9oltR_Ve3df-50" value="4.5. Tìm hoá đơn của khách hàng" style="whiteSpace=wrap;html=1;rounded=0;align=left;spacingLeft=4;spacing=4;spacingTop=4;spacingBottom=4;spacingRight=4;fontSize=12;" parent="1" vertex="1">
          <mxGeometry x="-3780" y="-710" width="90" height="50" as="geometry" />
        </mxCell>
        <mxCell id="Q_odpXwVn9oltR_Ve3df-51" value="4.6. Tìm khách hàng" style="whiteSpace=wrap;html=1;rounded=0;align=left;spacingLeft=4;spacing=4;spacingTop=4;spacingBottom=4;spacingRight=4;fontSize=12;" parent="1" vertex="1">
          <mxGeometry x="-3780" y="-640" width="90" height="40" as="geometry" />
        </mxCell>
        <mxCell id="Q_odpXwVn9oltR_Ve3df-52" value="4.1. Xem thông tin khách hàng" style="whiteSpace=wrap;html=1;rounded=0;align=left;spacingLeft=4;spacing=4;spacingTop=4;spacingBottom=4;spacingRight=4;fontSize=12;" parent="1" vertex="1">
          <mxGeometry x="-3780" y="-990" width="90" height="50" as="geometry" />
        </mxCell>
        <mxCell id="Q_odpXwVn9oltR_Ve3df-53" value="4.4. Xóa thông tin khách hàng" style="whiteSpace=wrap;html=1;rounded=0;align=left;spacingLeft=4;spacing=4;spacingTop=4;spacingBottom=4;spacingRight=4;fontSize=12;" parent="1" vertex="1">
          <mxGeometry x="-3780" y="-780" width="90" height="50" as="geometry" />
        </mxCell>
        <mxCell id="Q_odpXwVn9oltR_Ve3df-54" value="4.3. Sửa thông tin khách hàng" style="whiteSpace=wrap;html=1;rounded=0;align=left;spacingLeft=4;spacing=4;spacingTop=4;spacingBottom=4;spacingRight=4;fontSize=12;" parent="1" vertex="1">
          <mxGeometry x="-3780" y="-850" width="90" height="50" as="geometry" />
        </mxCell>
        <mxCell id="Q_odpXwVn9oltR_Ve3df-55" value="" style="endArrow=none;html=1;rounded=0;entryX=0.108;entryY=1.009;entryDx=0;entryDy=0;entryPerimeter=0;fontSize=13;spacingTop=4;spacing=4;spacingRight=4;spacingBottom=4;spacingLeft=4;" parent="1" target="Q_odpXwVn9oltR_Ve3df-48" edge="1">
          <mxGeometry width="50" height="50" relative="1" as="geometry">
            <mxPoint x="-3790" y="-620" as="sourcePoint" />
            <mxPoint x="-3645" y="-759" as="targetPoint" />
          </mxGeometry>
        </mxCell>
        <mxCell id="Q_odpXwVn9oltR_Ve3df-56" value="" style="endArrow=none;html=1;rounded=0;align=left;spacingLeft=4;spacing=4;spacingTop=4;spacingBottom=4;spacingRight=4;fontSize=12;" parent="1" target="Q_odpXwVn9oltR_Ve3df-49" edge="1">
          <mxGeometry width="50" height="50" relative="1" as="geometry">
            <mxPoint x="-3790" y="-895" as="sourcePoint" />
            <mxPoint x="-3747" y="-908" as="targetPoint" />
          </mxGeometry>
        </mxCell>
        <mxCell id="Q_odpXwVn9oltR_Ve3df-57" value="" style="endArrow=none;html=1;rounded=0;align=left;spacingLeft=4;spacing=4;spacingTop=4;spacingBottom=4;spacingRight=4;fontSize=12;" parent="1" target="Q_odpXwVn9oltR_Ve3df-54" edge="1">
          <mxGeometry width="50" height="50" relative="1" as="geometry">
            <mxPoint x="-3790" y="-825" as="sourcePoint" />
            <mxPoint x="-3745" y="-778" as="targetPoint" />
          </mxGeometry>
        </mxCell>
        <mxCell id="Q_odpXwVn9oltR_Ve3df-58" value="" style="endArrow=none;html=1;rounded=0;align=left;spacingLeft=4;spacing=4;spacingTop=4;spacingBottom=4;spacingRight=4;fontSize=12;" parent="1" target="Q_odpXwVn9oltR_Ve3df-53" edge="1">
          <mxGeometry width="50" height="50" relative="1" as="geometry">
            <mxPoint x="-3790" y="-755" as="sourcePoint" />
            <mxPoint x="-3745" y="-688" as="targetPoint" />
          </mxGeometry>
        </mxCell>
        <mxCell id="Q_odpXwVn9oltR_Ve3df-59" value="" style="endArrow=none;html=1;rounded=0;align=left;spacingLeft=4;spacing=4;spacingTop=4;spacingBottom=4;spacingRight=4;fontSize=12;" parent="1" target="Q_odpXwVn9oltR_Ve3df-50" edge="1">
          <mxGeometry width="50" height="50" relative="1" as="geometry">
            <mxPoint x="-3790" y="-685" as="sourcePoint" />
            <mxPoint x="-3735" y="-698" as="targetPoint" />
          </mxGeometry>
        </mxCell>
        <mxCell id="Q_odpXwVn9oltR_Ve3df-60" value="" style="endArrow=none;html=1;rounded=0;align=left;spacingLeft=4;spacing=4;spacingTop=4;spacingBottom=4;spacingRight=4;fontSize=12;" parent="1" target="Q_odpXwVn9oltR_Ve3df-51" edge="1">
          <mxGeometry width="50" height="50" relative="1" as="geometry">
            <mxPoint x="-3790" y="-620" as="sourcePoint" />
            <mxPoint x="-3725" y="-688" as="targetPoint" />
          </mxGeometry>
        </mxCell>
        <mxCell id="Q_odpXwVn9oltR_Ve3df-61" value="" style="endArrow=none;html=1;rounded=0;align=left;spacingLeft=4;spacing=4;spacingTop=4;spacingBottom=4;spacingRight=4;fontSize=12;" parent="1" target="Q_odpXwVn9oltR_Ve3df-52" edge="1">
          <mxGeometry width="50" height="50" relative="1" as="geometry">
            <mxPoint x="-3790" y="-965" as="sourcePoint" />
            <mxPoint x="-3717" y="-1078" as="targetPoint" />
          </mxGeometry>
        </mxCell>
        <mxCell id="Q_odpXwVn9oltR_Ve3df-62" value="" style="endArrow=none;html=1;rounded=0;entryX=0.11;entryY=1.002;entryDx=0;entryDy=0;entryPerimeter=0;fontSize=13;spacingTop=4;spacing=4;spacingRight=4;spacingBottom=4;spacingLeft=4;" parent="1" target="Q_odpXwVn9oltR_Ve3df-12" edge="1">
          <mxGeometry width="50" height="50" relative="1" as="geometry">
            <mxPoint x="-3680" y="-630" as="sourcePoint" />
            <mxPoint x="-3445" y="-980.3299999999999" as="targetPoint" />
          </mxGeometry>
        </mxCell>
        <mxCell id="Q_odpXwVn9oltR_Ve3df-63" value="" style="endArrow=none;html=1;rounded=0;align=left;spacingLeft=4;spacing=4;spacingTop=4;spacingBottom=4;spacingRight=4;fontSize=12;" parent="1" target="Q_odpXwVn9oltR_Ve3df-26" edge="1">
          <mxGeometry width="50" height="50" relative="1" as="geometry">
            <mxPoint x="-3680" y="-970" as="sourcePoint" />
            <mxPoint x="-3640" y="-981.33" as="targetPoint" />
          </mxGeometry>
        </mxCell>
        <mxCell id="Q_odpXwVn9oltR_Ve3df-64" value="" style="endArrow=none;html=1;rounded=0;align=left;spacingLeft=4;spacing=4;spacingTop=4;spacingBottom=4;spacingRight=4;fontSize=12;" parent="1" target="Q_odpXwVn9oltR_Ve3df-27" edge="1">
          <mxGeometry width="50" height="50" relative="1" as="geometry">
            <mxPoint x="-3680" y="-905" as="sourcePoint" />
            <mxPoint x="-3640" y="-891.33" as="targetPoint" />
          </mxGeometry>
        </mxCell>
        <mxCell id="Q_odpXwVn9oltR_Ve3df-65" value="" style="endArrow=none;html=1;rounded=0;align=left;spacingLeft=4;spacing=4;spacingTop=4;spacingBottom=4;spacingRight=4;fontSize=12;" parent="1" target="Q_odpXwVn9oltR_Ve3df-29" edge="1">
          <mxGeometry width="50" height="50" relative="1" as="geometry">
            <mxPoint x="-3680" y="-835" as="sourcePoint" />
            <mxPoint x="-3640" y="-801.3299999999999" as="targetPoint" />
          </mxGeometry>
        </mxCell>
        <mxCell id="Q_odpXwVn9oltR_Ve3df-66" value="" style="endArrow=none;html=1;rounded=0;align=left;spacingLeft=4;spacing=4;spacingTop=4;spacingBottom=4;spacingRight=4;fontSize=12;" parent="1" target="Q_odpXwVn9oltR_Ve3df-28" edge="1">
          <mxGeometry width="50" height="50" relative="1" as="geometry">
            <mxPoint x="-3680" y="-770" as="sourcePoint" />
            <mxPoint x="-3630" y="-810" as="targetPoint" />
          </mxGeometry>
        </mxCell>
        <mxCell id="Q_odpXwVn9oltR_Ve3df-67" value="" style="endArrow=none;html=1;rounded=0;entryX=0.11;entryY=0.997;entryDx=0;entryDy=0;entryPerimeter=0;fontSize=13;spacingTop=4;spacing=4;spacingRight=4;spacingBottom=4;spacingLeft=4;" parent="1" target="Q_odpXwVn9oltR_Ve3df-13" edge="1">
          <mxGeometry width="50" height="50" relative="1" as="geometry">
            <mxPoint x="-3570" y="-690" as="sourcePoint" />
            <mxPoint x="-3543" y="-1009" as="targetPoint" />
          </mxGeometry>
        </mxCell>
        <mxCell id="Q_odpXwVn9oltR_Ve3df-68" value="" style="endArrow=none;html=1;rounded=0;align=left;spacingLeft=4;spacing=4;spacingTop=4;spacingBottom=4;spacingRight=4;fontSize=12;" parent="1" target="Q_odpXwVn9oltR_Ve3df-32" edge="1">
          <mxGeometry width="50" height="50" relative="1" as="geometry">
            <mxPoint x="-3570" y="-960" as="sourcePoint" />
            <mxPoint x="-3550" y="-965.5" as="targetPoint" />
          </mxGeometry>
        </mxCell>
        <mxCell id="Q_odpXwVn9oltR_Ve3df-69" value="" style="endArrow=none;html=1;rounded=0;align=left;spacingLeft=4;spacing=4;spacingTop=4;spacingBottom=4;spacingRight=4;fontSize=12;" parent="1" target="Q_odpXwVn9oltR_Ve3df-30" edge="1">
          <mxGeometry width="50" height="50" relative="1" as="geometry">
            <mxPoint x="-3570" y="-890" as="sourcePoint" />
            <mxPoint x="-3550" y="-875.5" as="targetPoint" />
          </mxGeometry>
        </mxCell>
        <mxCell id="Q_odpXwVn9oltR_Ve3df-70" value="" style="endArrow=none;html=1;rounded=0;align=left;spacingLeft=4;spacing=4;spacingTop=4;spacingBottom=4;spacingRight=4;fontSize=12;" parent="1" target="Q_odpXwVn9oltR_Ve3df-33" edge="1">
          <mxGeometry width="50" height="50" relative="1" as="geometry">
            <mxPoint x="-3460" y="-970" as="sourcePoint" />
            <mxPoint x="-3728" y="-645" as="targetPoint" />
          </mxGeometry>
        </mxCell>
        <mxCell id="Q_odpXwVn9oltR_Ve3df-71" value="" style="endArrow=none;html=1;rounded=0;align=left;spacingLeft=4;spacing=4;spacingTop=4;spacingBottom=4;spacingRight=4;fontSize=12;" parent="1" target="Q_odpXwVn9oltR_Ve3df-31" edge="1">
          <mxGeometry width="50" height="50" relative="1" as="geometry">
            <mxPoint x="-3570" y="-755" as="sourcePoint" />
            <mxPoint x="-3550" y="-785.5" as="targetPoint" />
          </mxGeometry>
        </mxCell>
        <mxCell id="Q_odpXwVn9oltR_Ve3df-73" value="6.5. Xuất phiếu nhập" style="whiteSpace=wrap;html=1;rounded=0;align=left;spacingLeft=4;spacing=4;spacingTop=4;spacingBottom=4;spacingRight=4;fontSize=12;" parent="1" vertex="1">
          <mxGeometry x="-3560" y="-710" width="90" height="40" as="geometry" />
        </mxCell>
        <mxCell id="Q_odpXwVn9oltR_Ve3df-74" value="" style="endArrow=none;html=1;rounded=0;align=left;spacingLeft=4;spacing=4;spacingTop=4;spacingBottom=4;spacingRight=4;fontSize=12;" parent="1" target="Q_odpXwVn9oltR_Ve3df-73" edge="1">
          <mxGeometry width="50" height="50" relative="1" as="geometry">
            <mxPoint x="-3570" y="-690" as="sourcePoint" />
            <mxPoint x="-3720" y="-715" as="targetPoint" />
          </mxGeometry>
        </mxCell>
        <mxCell id="jdRXiY8LsSO7iQemCwnl-2" value="6.3. Tăng/Giảm số lượng nhập" style="whiteSpace=wrap;html=1;rounded=0;align=left;spacingLeft=4;spacing=4;spacingTop=4;spacingBottom=4;spacingRight=4;fontSize=12;" parent="1" vertex="1">
          <mxGeometry x="-3560" y="-850" width="90" height="50" as="geometry" />
        </mxCell>
        <mxCell id="X0TA0SRqUtR9YWt_zdDL-1" value="5.5. Xuất phiếu thống kê doanh thu" style="whiteSpace=wrap;html=1;rounded=0;align=left;spacingLeft=4;spacing=4;spacingTop=4;spacingBottom=4;spacingRight=4;fontSize=12;" parent="1" vertex="1">
          <mxGeometry x="-3670" y="-660" width="90" height="60" as="geometry" />
        </mxCell>
        <mxCell id="X0TA0SRqUtR9YWt_zdDL-2" value="" style="endArrow=none;html=1;rounded=0;align=left;spacingLeft=4;spacing=4;spacingTop=4;spacingBottom=4;spacingRight=4;fontSize=12;" parent="1" target="Q_odpXwVn9oltR_Ve3df-17" edge="1">
          <mxGeometry width="50" height="50" relative="1" as="geometry">
            <mxPoint x="-4120" y="-890" as="sourcePoint" />
            <mxPoint x="-4106" y="-958" as="targetPoint" />
          </mxGeometry>
        </mxCell>
        <mxCell id="X0TA0SRqUtR9YWt_zdDL-4" value="" style="endArrow=none;html=1;rounded=0;align=left;spacingLeft=4;spacing=4;spacingTop=4;spacingBottom=4;spacingRight=4;fontSize=12;" parent="1" target="X0TA0SRqUtR9YWt_zdDL-1" edge="1">
          <mxGeometry width="50" height="50" relative="1" as="geometry">
            <mxPoint x="-3680" y="-630" as="sourcePoint" />
            <mxPoint x="-3660" y="-716" as="targetPoint" />
          </mxGeometry>
        </mxCell>
        <mxCell id="X0TA0SRqUtR9YWt_zdDL-5" value="" style="endArrow=none;html=1;rounded=0;align=left;spacingLeft=4;spacing=4;spacingTop=4;spacingBottom=4;spacingRight=4;fontSize=12;" parent="1" target="jdRXiY8LsSO7iQemCwnl-2" edge="1">
          <mxGeometry width="50" height="50" relative="1" as="geometry">
            <mxPoint x="-3570" y="-825" as="sourcePoint" />
            <mxPoint x="-3550" y="-890" as="targetPoint" />
          </mxGeometry>
        </mxCell>
        <mxCell id="X0TA0SRqUtR9YWt_zdDL-6" value="5.5. Xem số lượng mặt hàng đã bán" style="whiteSpace=wrap;html=1;rounded=0;align=left;spacingLeft=4;spacing=4;spacingTop=4;spacingBottom=4;spacingRight=4;fontSize=12;" parent="1" vertex="1">
          <mxGeometry x="-3670" y="-730" width="90" height="50" as="geometry" />
        </mxCell>
        <mxCell id="X0TA0SRqUtR9YWt_zdDL-7" value="" style="endArrow=none;html=1;rounded=0;align=left;spacingLeft=4;spacing=4;spacingTop=4;spacingBottom=4;spacingRight=4;fontSize=12;" parent="1" target="X0TA0SRqUtR9YWt_zdDL-6" edge="1">
          <mxGeometry width="50" height="50" relative="1" as="geometry">
            <mxPoint x="-3680" y="-705" as="sourcePoint" />
            <mxPoint x="-3660" y="-780" as="targetPoint" />
          </mxGeometry>
        </mxCell>
        <mxCell id="9Kq_OPqONBeP0_Xu31pN-1" value="7. Quản lý&amp;nbsp;&lt;div&gt;phiếu nhập&lt;/div&gt;" style="whiteSpace=wrap;html=1;rounded=0;fontSize=13;spacingTop=4;spacing=4;spacingRight=4;spacingBottom=4;spacingLeft=4;" parent="1" vertex="1">
          <mxGeometry x="-3470" y="-1049" width="90" height="39" as="geometry" />
        </mxCell>
        <mxCell id="9Kq_OPqONBeP0_Xu31pN-2" value="" style="endArrow=none;html=1;rounded=0;fontSize=13;spacingTop=4;spacing=4;spacingRight=4;spacingBottom=4;spacingLeft=4;entryX=0.107;entryY=1.001;entryDx=0;entryDy=0;entryPerimeter=0;" parent="1" target="9Kq_OPqONBeP0_Xu31pN-1" edge="1">
          <mxGeometry width="50" height="50" relative="1" as="geometry">
            <mxPoint x="-3460" y="-970" as="sourcePoint" />
            <mxPoint x="-3428" y="-1000" as="targetPoint" />
          </mxGeometry>
        </mxCell>
        <mxCell id="9Kq_OPqONBeP0_Xu31pN-4" style="edgeStyle=orthogonalEdgeStyle;rounded=0;orthogonalLoop=1;jettySize=auto;html=1;" parent="1" source="Q_odpXwVn9oltR_Ve3df-8" target="9Kq_OPqONBeP0_Xu31pN-1" edge="1">
          <mxGeometry relative="1" as="geometry">
            <Array as="points">
              <mxPoint x="-3730" y="-1080" />
              <mxPoint x="-3420" y="-1080" />
            </Array>
            <mxPoint x="-3720" y="-1100" as="sourcePoint" />
            <mxPoint x="-3370" y="-1039" as="targetPoint" />
          </mxGeometry>
        </mxCell>
      </root>
    </mxGraphModel>
  </diagram>
  <diagram id="EOFpoEzITYBdiXPboAZs" name="DFD Mức 0">
    <mxGraphModel dx="1050" dy="669" grid="1" gridSize="10" guides="1" tooltips="1" connect="1" arrows="1" fold="1" page="1" pageScale="1" pageWidth="827" pageHeight="1169" math="0" shadow="0">
      <root>
        <mxCell id="0" />
        <mxCell id="1" parent="0" />
        <mxCell id="LR_-7Q0_zoqyB9Pe37WJ-15" value="Trạng thái / Thông tin thao tác&amp;nbsp;" style="edgeStyle=orthogonalEdgeStyle;rounded=0;orthogonalLoop=1;jettySize=auto;html=1;" parent="1" source="LR_-7Q0_zoqyB9Pe37WJ-2" target="LR_-7Q0_zoqyB9Pe37WJ-3" edge="1">
          <mxGeometry relative="1" as="geometry">
            <Array as="points">
              <mxPoint x="390" y="390" />
              <mxPoint x="115" y="390" />
            </Array>
            <mxPoint as="offset" />
          </mxGeometry>
        </mxCell>
        <mxCell id="LR_-7Q0_zoqyB9Pe37WJ-26" style="edgeStyle=orthogonalEdgeStyle;rounded=0;orthogonalLoop=1;jettySize=auto;html=1;" parent="1" source="LR_-7Q0_zoqyB9Pe37WJ-2" target="LR_-7Q0_zoqyB9Pe37WJ-5" edge="1">
          <mxGeometry relative="1" as="geometry">
            <Array as="points">
              <mxPoint x="410" y="390" />
              <mxPoint x="705" y="390" />
            </Array>
          </mxGeometry>
        </mxCell>
        <mxCell id="LR_-7Q0_zoqyB9Pe37WJ-27" value="Trạng thái / Thông tin thao tác&amp;nbsp;" style="edgeLabel;html=1;align=center;verticalAlign=middle;resizable=0;points=[];" parent="LR_-7Q0_zoqyB9Pe37WJ-26" vertex="1" connectable="0">
          <mxGeometry x="-0.1003" relative="1" as="geometry">
            <mxPoint as="offset" />
          </mxGeometry>
        </mxCell>
        <mxCell id="LR_-7Q0_zoqyB9Pe37WJ-2" value="Hệ thống cửa hàng tiện lợi&lt;div&gt;MiniStore&lt;/div&gt;" style="strokeWidth=2;html=1;shape=mxgraph.flowchart.start_2;whiteSpace=wrap;" parent="1" vertex="1">
          <mxGeometry x="350" y="260" width="100" height="100" as="geometry" />
        </mxCell>
        <mxCell id="LR_-7Q0_zoqyB9Pe37WJ-7" value="Danh sách giỏ hàng" style="edgeStyle=orthogonalEdgeStyle;rounded=0;orthogonalLoop=1;jettySize=auto;html=1;" parent="1" source="LR_-7Q0_zoqyB9Pe37WJ-3" target="LR_-7Q0_zoqyB9Pe37WJ-2" edge="1">
          <mxGeometry relative="1" as="geometry">
            <Array as="points">
              <mxPoint x="260" y="300" />
              <mxPoint x="260" y="300" />
            </Array>
            <mxPoint as="offset" />
          </mxGeometry>
        </mxCell>
        <mxCell id="LR_-7Q0_zoqyB9Pe37WJ-14" value="Thông tin khách hàng&amp;nbsp;" style="edgeStyle=orthogonalEdgeStyle;rounded=0;orthogonalLoop=1;jettySize=auto;html=1;" parent="1" source="LR_-7Q0_zoqyB9Pe37WJ-3" target="LR_-7Q0_zoqyB9Pe37WJ-2" edge="1">
          <mxGeometry relative="1" as="geometry">
            <Array as="points">
              <mxPoint x="270" y="320" />
              <mxPoint x="270" y="320" />
            </Array>
          </mxGeometry>
        </mxCell>
        <mxCell id="LR_-7Q0_zoqyB9Pe37WJ-3" value="Nhân viên" style="html=1;whiteSpace=wrap;" parent="1" vertex="1">
          <mxGeometry x="60" y="275" width="110" height="50" as="geometry" />
        </mxCell>
        <mxCell id="LR_-7Q0_zoqyB9Pe37WJ-18" value="Thông tin khách hàng&amp;nbsp;" style="edgeStyle=orthogonalEdgeStyle;rounded=0;orthogonalLoop=1;jettySize=auto;html=1;" parent="1" source="LR_-7Q0_zoqyB9Pe37WJ-5" target="LR_-7Q0_zoqyB9Pe37WJ-2" edge="1">
          <mxGeometry relative="1" as="geometry">
            <mxPoint x="650" y="305" as="sourcePoint" />
            <mxPoint x="450" y="325" as="targetPoint" />
            <Array as="points">
              <mxPoint x="500" y="320" />
              <mxPoint x="500" y="320" />
            </Array>
          </mxGeometry>
        </mxCell>
        <mxCell id="LR_-7Q0_zoqyB9Pe37WJ-19" value="Danh sách giỏ hàng" style="edgeStyle=orthogonalEdgeStyle;rounded=0;orthogonalLoop=1;jettySize=auto;html=1;entryX=0.994;entryY=0.4;entryDx=0;entryDy=0;entryPerimeter=0;" parent="1" target="LR_-7Q0_zoqyB9Pe37WJ-2" edge="1">
          <mxGeometry relative="1" as="geometry">
            <mxPoint x="650" y="295" as="sourcePoint" />
            <mxPoint x="450" y="285" as="targetPoint" />
            <Array as="points">
              <mxPoint x="650" y="300" />
            </Array>
          </mxGeometry>
        </mxCell>
        <mxCell id="LR_-7Q0_zoqyB9Pe37WJ-24" value="Thông tin mặt hàng&amp;nbsp;" style="edgeStyle=orthogonalEdgeStyle;rounded=0;orthogonalLoop=1;jettySize=auto;html=1;entryX=0.5;entryY=0;entryDx=0;entryDy=0;entryPerimeter=0;" parent="1" source="LR_-7Q0_zoqyB9Pe37WJ-5" target="LR_-7Q0_zoqyB9Pe37WJ-2" edge="1">
          <mxGeometry x="-0.0203" relative="1" as="geometry">
            <mxPoint x="685.2" y="275" as="sourcePoint" />
            <mxPoint x="429.99999999999994" y="263.20000000000005" as="targetPoint" />
            <Array as="points">
              <mxPoint x="705" y="210" />
              <mxPoint x="400" y="210" />
            </Array>
            <mxPoint as="offset" />
          </mxGeometry>
        </mxCell>
        <mxCell id="LR_-7Q0_zoqyB9Pe37WJ-5" value="Quản lý" style="html=1;whiteSpace=wrap;" parent="1" vertex="1">
          <mxGeometry x="650" y="275" width="110" height="50" as="geometry" />
        </mxCell>
        <mxCell id="LR_-7Q0_zoqyB9Pe37WJ-37" value="Thông tin phiếu nhập&amp;nbsp;" style="edgeStyle=orthogonalEdgeStyle;rounded=0;orthogonalLoop=1;jettySize=auto;html=1;entryX=0.303;entryY=0.042;entryDx=0;entryDy=0;entryPerimeter=0;" parent="1" source="LR_-7Q0_zoqyB9Pe37WJ-5" target="LR_-7Q0_zoqyB9Pe37WJ-2" edge="1">
          <mxGeometry relative="1" as="geometry">
            <mxPoint x="685" y="285" as="sourcePoint" />
            <mxPoint x="380" y="260" as="targetPoint" />
            <Array as="points">
              <mxPoint x="720" y="180" />
              <mxPoint x="380" y="180" />
            </Array>
            <mxPoint as="offset" />
          </mxGeometry>
        </mxCell>
        <mxCell id="WPX4AptOvdLg5pFxLWsZ-1" value="Thông tin nhân viên&amp;nbsp;" style="edgeStyle=orthogonalEdgeStyle;rounded=0;orthogonalLoop=1;jettySize=auto;html=1;entryX=0.701;entryY=0.051;entryDx=0;entryDy=0;entryPerimeter=0;" parent="1" source="LR_-7Q0_zoqyB9Pe37WJ-5" target="LR_-7Q0_zoqyB9Pe37WJ-2" edge="1">
          <mxGeometry relative="1" as="geometry">
            <mxPoint x="649.9999999999998" y="260" as="sourcePoint" />
            <mxPoint x="440" y="250" as="targetPoint" />
            <Array as="points">
              <mxPoint x="690" y="240" />
              <mxPoint x="420" y="240" />
            </Array>
          </mxGeometry>
        </mxCell>
        <mxCell id="WPX4AptOvdLg5pFxLWsZ-2" value="Hoá đơn giao dịch" style="edgeStyle=orthogonalEdgeStyle;rounded=0;orthogonalLoop=1;jettySize=auto;html=1;entryX=0.098;entryY=0.206;entryDx=0;entryDy=0;entryPerimeter=0;" parent="1" source="LR_-7Q0_zoqyB9Pe37WJ-3" target="LR_-7Q0_zoqyB9Pe37WJ-2" edge="1">
          <mxGeometry relative="1" as="geometry">
            <Array as="points">
              <mxPoint x="360" y="280" />
            </Array>
            <mxPoint as="offset" />
            <mxPoint x="180" y="300" as="sourcePoint" />
            <mxPoint x="360" y="280" as="targetPoint" />
          </mxGeometry>
        </mxCell>
        <mxCell id="WPX4AptOvdLg5pFxLWsZ-3" value="Hoá đơn giao dịch" style="edgeStyle=orthogonalEdgeStyle;rounded=0;orthogonalLoop=1;jettySize=auto;html=1;" parent="1" source="LR_-7Q0_zoqyB9Pe37WJ-5" edge="1">
          <mxGeometry relative="1" as="geometry">
            <Array as="points">
              <mxPoint x="545" y="280" />
              <mxPoint x="440" y="281" />
            </Array>
            <mxPoint as="offset" />
            <mxPoint x="150" y="285" as="sourcePoint" />
            <mxPoint x="440" y="281" as="targetPoint" />
          </mxGeometry>
        </mxCell>
      </root>
    </mxGraphModel>
  </diagram>
  <diagram id="nmnE8qgTCsU_OP5iOgVU" name="DFD Mức 1 - Nhân viên">
    <mxGraphModel dx="1434" dy="884" grid="1" gridSize="10" guides="1" tooltips="1" connect="1" arrows="1" fold="1" page="1" pageScale="1" pageWidth="827" pageHeight="1169" math="0" shadow="0">
      <root>
        <mxCell id="0" />
        <mxCell id="1" parent="0" />
        <mxCell id="8kBW6iA47W0XN6ngnZvK-12" value="&lt;div&gt;Truy vấn&lt;/div&gt;&lt;div&gt;thông tin&lt;/div&gt;" style="edgeStyle=orthogonalEdgeStyle;rounded=0;orthogonalLoop=1;jettySize=auto;html=1;" parent="1" source="hxAXSpSvLpoHZjbAWOit-4" target="5nyIcnTJaHYbNh-vYt02-1" edge="1">
          <mxGeometry x="-0.1111" relative="1" as="geometry">
            <Array as="points">
              <mxPoint x="438" y="630" />
              <mxPoint x="438" y="630" />
            </Array>
            <mxPoint as="offset" />
          </mxGeometry>
        </mxCell>
        <mxCell id="8kBW6iA47W0XN6ngnZvK-13" style="edgeStyle=orthogonalEdgeStyle;rounded=0;orthogonalLoop=1;jettySize=auto;html=1;" parent="1" target="5nyIcnTJaHYbNh-vYt02-60" edge="1">
          <mxGeometry relative="1" as="geometry">
            <mxPoint x="428.3589838486223" y="730" as="sourcePoint" />
            <mxPoint x="194" y="560" as="targetPoint" />
            <Array as="points">
              <mxPoint x="194" y="730" />
            </Array>
          </mxGeometry>
        </mxCell>
        <mxCell id="8kBW6iA47W0XN6ngnZvK-15" value="&lt;div&gt;Chi tiết&lt;/div&gt;&lt;div&gt;hoá đơn&lt;/div&gt;" style="edgeLabel;html=1;align=center;verticalAlign=middle;resizable=0;points=[];" parent="8kBW6iA47W0XN6ngnZvK-13" vertex="1" connectable="0">
          <mxGeometry x="0.1416" y="1" relative="1" as="geometry">
            <mxPoint as="offset" />
          </mxGeometry>
        </mxCell>
        <mxCell id="hxAXSpSvLpoHZjbAWOit-4" value="2. Quản lý&lt;br&gt;hoá đơn" style="ellipse;whiteSpace=wrap;html=1;aspect=fixed;fontFamily=Helvetica;" parent="1" vertex="1">
          <mxGeometry x="398" y="670" width="80" height="80" as="geometry" />
        </mxCell>
        <mxCell id="8kBW6iA47W0XN6ngnZvK-9" value="Thông tin&lt;div&gt;hoá đơn&lt;/div&gt;" style="edgeStyle=orthogonalEdgeStyle;rounded=0;orthogonalLoop=1;jettySize=auto;html=1;" parent="1" source="hxAXSpSvLpoHZjbAWOit-5" target="5nyIcnTJaHYbNh-vYt02-1" edge="1">
          <mxGeometry relative="1" as="geometry">
            <mxPoint as="offset" />
          </mxGeometry>
        </mxCell>
        <mxCell id="8kBW6iA47W0XN6ngnZvK-14" value="Thông báo" style="edgeStyle=orthogonalEdgeStyle;rounded=0;orthogonalLoop=1;jettySize=auto;html=1;" parent="1" source="hxAXSpSvLpoHZjbAWOit-5" target="5nyIcnTJaHYbNh-vYt02-60" edge="1">
          <mxGeometry x="0.1312" relative="1" as="geometry">
            <Array as="points">
              <mxPoint x="169" y="330" />
            </Array>
            <mxPoint as="offset" />
          </mxGeometry>
        </mxCell>
        <mxCell id="hxAXSpSvLpoHZjbAWOit-5" value="1. Quản lý bán hàng" style="ellipse;whiteSpace=wrap;html=1;aspect=fixed;fontFamily=Helvetica;" parent="1" vertex="1">
          <mxGeometry x="398" y="310" width="80" height="80" as="geometry" />
        </mxCell>
        <mxCell id="8kBW6iA47W0XN6ngnZvK-18" value="&lt;div&gt;Dữ liệu&lt;/div&gt;&lt;div&gt;khách hàng&lt;/div&gt;" style="edgeStyle=orthogonalEdgeStyle;rounded=0;orthogonalLoop=1;jettySize=auto;html=1;" parent="1" source="hxAXSpSvLpoHZjbAWOit-8" target="5nyIcnTJaHYbNh-vYt02-3" edge="1">
          <mxGeometry x="-0.0572" relative="1" as="geometry">
            <Array as="points">
              <mxPoint x="654" y="860" />
            </Array>
            <mxPoint as="offset" />
          </mxGeometry>
        </mxCell>
        <mxCell id="8kBW6iA47W0XN6ngnZvK-20" value="Thông báo" style="edgeStyle=orthogonalEdgeStyle;rounded=0;orthogonalLoop=1;jettySize=auto;html=1;" parent="1" source="hxAXSpSvLpoHZjbAWOit-8" target="5nyIcnTJaHYbNh-vYt02-60" edge="1">
          <mxGeometry x="-0.0627" relative="1" as="geometry">
            <Array as="points">
              <mxPoint x="134" y="870" />
            </Array>
            <mxPoint as="offset" />
          </mxGeometry>
        </mxCell>
        <mxCell id="hxAXSpSvLpoHZjbAWOit-8" value="4.Quản lý&amp;nbsp;&lt;div&gt;khách hàng&lt;/div&gt;" style="ellipse;whiteSpace=wrap;html=1;aspect=fixed;fontFamily=Helvetica;" parent="1" vertex="1">
          <mxGeometry x="398" y="830" width="80" height="80" as="geometry" />
        </mxCell>
        <mxCell id="8kBW6iA47W0XN6ngnZvK-11" value="Truy vấn&lt;div&gt;chi tiết&lt;/div&gt;&lt;div&gt;hoá đơn&lt;/div&gt;" style="edgeStyle=orthogonalEdgeStyle;rounded=0;orthogonalLoop=1;jettySize=auto;html=1;" parent="1" source="5nyIcnTJaHYbNh-vYt02-1" target="hxAXSpSvLpoHZjbAWOit-4" edge="1">
          <mxGeometry x="-0.1013" relative="1" as="geometry">
            <mxPoint x="613.9999999999998" y="630" as="targetPoint" />
            <Array as="points">
              <mxPoint x="534" y="565" />
              <mxPoint x="534" y="710" />
            </Array>
            <mxPoint as="offset" />
          </mxGeometry>
        </mxCell>
        <mxCell id="5nyIcnTJaHYbNh-vYt02-1" value="Hóa đơn" style="html=1;dashed=0;whitespace=wrap;shape=partialRectangle;right=0;left=0;fontFamily=Helvetica;" parent="1" vertex="1">
          <mxGeometry x="388" y="550" width="100" height="30" as="geometry" />
        </mxCell>
        <mxCell id="8kBW6iA47W0XN6ngnZvK-6" style="edgeStyle=orthogonalEdgeStyle;rounded=0;orthogonalLoop=1;jettySize=auto;html=1;" parent="1" source="5nyIcnTJaHYbNh-vYt02-2" target="hxAXSpSvLpoHZjbAWOit-5" edge="1">
          <mxGeometry relative="1" as="geometry">
            <mxPoint x="643.9655172413793" y="280" as="sourcePoint" />
            <mxPoint x="438" y="370" as="targetPoint" />
            <Array as="points">
              <mxPoint x="580" y="350" />
              <mxPoint x="580" y="350" />
            </Array>
          </mxGeometry>
        </mxCell>
        <mxCell id="8kBW6iA47W0XN6ngnZvK-7" value="Tên nhân viên" style="edgeLabel;html=1;align=center;verticalAlign=middle;resizable=0;points=[];" parent="8kBW6iA47W0XN6ngnZvK-6" vertex="1" connectable="0">
          <mxGeometry x="-0.252" y="1" relative="1" as="geometry">
            <mxPoint x="-3" y="-1" as="offset" />
          </mxGeometry>
        </mxCell>
        <mxCell id="5nyIcnTJaHYbNh-vYt02-2" value="Nhân viên" style="html=1;dashed=0;whitespace=wrap;shape=partialRectangle;right=0;left=0;fontFamily=Helvetica;" parent="1" vertex="1">
          <mxGeometry x="630" y="335" width="100" height="30" as="geometry" />
        </mxCell>
        <mxCell id="8kBW6iA47W0XN6ngnZvK-8" value="Tên khách hàng" style="edgeStyle=orthogonalEdgeStyle;rounded=0;orthogonalLoop=1;jettySize=auto;html=1;" parent="1" source="5nyIcnTJaHYbNh-vYt02-3" target="hxAXSpSvLpoHZjbAWOit-5" edge="1">
          <mxGeometry x="-0.139" relative="1" as="geometry">
            <mxPoint x="637.5399999999997" y="390" as="sourcePoint" />
            <mxPoint x="477.9975131106458" y="350" as="targetPoint" />
            <Array as="points">
              <mxPoint x="674" y="460" />
              <mxPoint x="514" y="460" />
              <mxPoint x="514" y="370" />
            </Array>
            <mxPoint as="offset" />
          </mxGeometry>
        </mxCell>
        <mxCell id="8kBW6iA47W0XN6ngnZvK-19" value="Kết quả&lt;div&gt;dữ liệu&amp;nbsp;&lt;/div&gt;&lt;div&gt;khách hàng&lt;/div&gt;" style="edgeStyle=orthogonalEdgeStyle;rounded=0;orthogonalLoop=1;jettySize=auto;html=1;" parent="1" source="5nyIcnTJaHYbNh-vYt02-3" target="hxAXSpSvLpoHZjbAWOit-8" edge="1">
          <mxGeometry x="0.0497" y="12" relative="1" as="geometry">
            <Array as="points">
              <mxPoint x="694" y="880" />
            </Array>
            <mxPoint x="6" y="-2" as="offset" />
          </mxGeometry>
        </mxCell>
        <mxCell id="5nyIcnTJaHYbNh-vYt02-3" value="Khách hàng" style="html=1;dashed=0;whitespace=wrap;shape=partialRectangle;right=0;left=0;fontFamily=Helvetica;" parent="1" vertex="1">
          <mxGeometry x="624" y="610" width="100" height="30" as="geometry" />
        </mxCell>
        <mxCell id="8kBW6iA47W0XN6ngnZvK-5" value="Xác nhận&lt;div&gt;truy vấn&lt;/div&gt;" style="edgeStyle=orthogonalEdgeStyle;rounded=0;orthogonalLoop=1;jettySize=auto;html=1;" parent="1" source="5nyIcnTJaHYbNh-vYt02-4" target="hxAXSpSvLpoHZjbAWOit-5" edge="1">
          <mxGeometry x="0.5963" relative="1" as="geometry">
            <Array as="points">
              <mxPoint x="680" y="240" />
              <mxPoint x="430" y="240" />
            </Array>
            <mxPoint as="offset" />
          </mxGeometry>
        </mxCell>
        <mxCell id="5nyIcnTJaHYbNh-vYt02-4" value="Mặt hàng" style="html=1;dashed=0;whitespace=wrap;shape=partialRectangle;right=0;left=0;fontFamily=Helvetica;" parent="1" vertex="1">
          <mxGeometry x="630" y="270" width="100" height="30" as="geometry" />
        </mxCell>
        <mxCell id="8kBW6iA47W0XN6ngnZvK-3" style="edgeStyle=orthogonalEdgeStyle;rounded=0;orthogonalLoop=1;jettySize=auto;html=1;" parent="1" source="5nyIcnTJaHYbNh-vYt02-60" target="hxAXSpSvLpoHZjbAWOit-5" edge="1">
          <mxGeometry relative="1" as="geometry">
            <Array as="points">
              <mxPoint x="264" y="530" />
              <mxPoint x="264" y="360" />
            </Array>
          </mxGeometry>
        </mxCell>
        <mxCell id="8kBW6iA47W0XN6ngnZvK-4" value="Thông tin&lt;div&gt;giỏ hàng&lt;/div&gt;" style="edgeLabel;html=1;align=center;verticalAlign=middle;resizable=0;points=[];" parent="8kBW6iA47W0XN6ngnZvK-3" vertex="1" connectable="0">
          <mxGeometry x="0.0062" relative="1" as="geometry">
            <mxPoint y="-34" as="offset" />
          </mxGeometry>
        </mxCell>
        <mxCell id="8kBW6iA47W0XN6ngnZvK-10" value="&lt;div&gt;Thông tin&amp;nbsp;&lt;/div&gt;&lt;div&gt;hoá đơn&lt;/div&gt;" style="edgeStyle=orthogonalEdgeStyle;rounded=0;orthogonalLoop=1;jettySize=auto;html=1;" parent="1" source="5nyIcnTJaHYbNh-vYt02-60" target="hxAXSpSvLpoHZjbAWOit-4" edge="1">
          <mxGeometry x="0.2049" relative="1" as="geometry">
            <Array as="points">
              <mxPoint x="264" y="540" />
              <mxPoint x="264" y="690" />
            </Array>
            <mxPoint as="offset" />
          </mxGeometry>
        </mxCell>
        <mxCell id="8kBW6iA47W0XN6ngnZvK-17" value="Thông tin&lt;div&gt;khách hàng&lt;/div&gt;" style="edgeStyle=orthogonalEdgeStyle;rounded=0;orthogonalLoop=1;jettySize=auto;html=1;" parent="1" source="5nyIcnTJaHYbNh-vYt02-60" target="hxAXSpSvLpoHZjbAWOit-8" edge="1">
          <mxGeometry x="-0.0441" relative="1" as="geometry">
            <Array as="points">
              <mxPoint x="164" y="810" />
              <mxPoint x="438" y="810" />
            </Array>
            <mxPoint as="offset" />
          </mxGeometry>
        </mxCell>
        <mxCell id="5nyIcnTJaHYbNh-vYt02-60" value="Nhân viên" style="html=1;whiteSpace=wrap;" parent="1" vertex="1">
          <mxGeometry x="94" y="510" width="110" height="50" as="geometry" />
        </mxCell>
        <mxCell id="sUewxsG9Vz1XDptGlRBt-1" value="Danh sách&amp;nbsp;&lt;div&gt;mặt hàng&lt;/div&gt;" style="edgeStyle=orthogonalEdgeStyle;rounded=0;orthogonalLoop=1;jettySize=auto;html=1;" parent="1" source="hxAXSpSvLpoHZjbAWOit-5" target="5nyIcnTJaHYbNh-vYt02-4" edge="1">
          <mxGeometry x="0.3082" y="5" relative="1" as="geometry">
            <mxPoint x="414" y="360" as="sourcePoint" />
            <mxPoint x="-90" y="160" as="targetPoint" />
            <Array as="points">
              <mxPoint x="560" y="330" />
              <mxPoint x="560" y="285" />
            </Array>
            <mxPoint as="offset" />
          </mxGeometry>
        </mxCell>
      </root>
    </mxGraphModel>
  </diagram>
  <diagram id="RQkZy_KIUVX5PwbV09FU" name="DFD Mức 1 - Quản lý">
    <mxGraphModel dx="2284" dy="884" grid="1" gridSize="10" guides="1" tooltips="1" connect="1" arrows="1" fold="1" page="1" pageScale="1" pageWidth="850" pageHeight="1100" math="0" shadow="0">
      <root>
        <mxCell id="0" />
        <mxCell id="1" parent="0" />
        <mxCell id="KKkVXieI7hjPpSHDypNt-2" value="" style="edgeStyle=orthogonalEdgeStyle;rounded=0;orthogonalLoop=1;jettySize=auto;html=1;" parent="1" source="KKkVXieI7hjPpSHDypNt-5" target="KKkVXieI7hjPpSHDypNt-17" edge="1">
          <mxGeometry x="-0.1111" relative="1" as="geometry">
            <Array as="points">
              <mxPoint x="414" y="680" />
              <mxPoint x="414" y="680" />
            </Array>
            <mxPoint as="offset" />
          </mxGeometry>
        </mxCell>
        <mxCell id="KKkVXieI7hjPpSHDypNt-3" style="edgeStyle=orthogonalEdgeStyle;rounded=0;orthogonalLoop=1;jettySize=auto;html=1;" parent="1" target="KKkVXieI7hjPpSHDypNt-31" edge="1">
          <mxGeometry relative="1" as="geometry">
            <mxPoint x="394.32898384862233" y="780" as="sourcePoint" />
            <mxPoint x="159.99857142857147" y="610" as="targetPoint" />
            <Array as="points">
              <mxPoint x="170" y="780" />
            </Array>
          </mxGeometry>
        </mxCell>
        <mxCell id="KKkVXieI7hjPpSHDypNt-4" value="Thông báo" style="edgeLabel;html=1;align=center;verticalAlign=middle;resizable=0;points=[];" parent="KKkVXieI7hjPpSHDypNt-3" vertex="1" connectable="0">
          <mxGeometry x="0.1416" y="1" relative="1" as="geometry">
            <mxPoint x="51" as="offset" />
          </mxGeometry>
        </mxCell>
        <mxCell id="KKkVXieI7hjPpSHDypNt-5" value="2. Quản lý&lt;br&gt;hoá đơn đơn" style="ellipse;whiteSpace=wrap;html=1;aspect=fixed;fontFamily=Helvetica;" parent="1" vertex="1">
          <mxGeometry x="374" y="720" width="80" height="80" as="geometry" />
        </mxCell>
        <mxCell id="KKkVXieI7hjPpSHDypNt-6" value="Thông tin&lt;div&gt;hoá đơn&lt;/div&gt;" style="edgeStyle=orthogonalEdgeStyle;rounded=0;orthogonalLoop=1;jettySize=auto;html=1;" parent="1" source="KKkVXieI7hjPpSHDypNt-8" target="KKkVXieI7hjPpSHDypNt-17" edge="1">
          <mxGeometry relative="1" as="geometry" />
        </mxCell>
        <mxCell id="KKkVXieI7hjPpSHDypNt-7" value="Thông báo" style="edgeStyle=orthogonalEdgeStyle;rounded=0;orthogonalLoop=1;jettySize=auto;html=1;" parent="1" source="KKkVXieI7hjPpSHDypNt-8" target="KKkVXieI7hjPpSHDypNt-31" edge="1">
          <mxGeometry x="0.1257" relative="1" as="geometry">
            <Array as="points">
              <mxPoint x="145" y="390" />
            </Array>
            <mxPoint as="offset" />
          </mxGeometry>
        </mxCell>
        <mxCell id="GdZOM4vs3a35VBvcy_7R-2" value="Danh sách&amp;nbsp;&lt;div&gt;mặt hàng&lt;/div&gt;" style="edgeStyle=orthogonalEdgeStyle;rounded=0;orthogonalLoop=1;jettySize=auto;html=1;" parent="1" source="KKkVXieI7hjPpSHDypNt-8" target="KKkVXieI7hjPpSHDypNt-25" edge="1">
          <mxGeometry x="-0.3653" relative="1" as="geometry">
            <Array as="points">
              <mxPoint x="414" y="160" />
            </Array>
            <mxPoint as="offset" />
          </mxGeometry>
        </mxCell>
        <mxCell id="KKkVXieI7hjPpSHDypNt-8" value="1. Quản lý bán hàng" style="ellipse;whiteSpace=wrap;html=1;aspect=fixed;fontFamily=Helvetica;" parent="1" vertex="1">
          <mxGeometry x="374" y="360" width="80" height="80" as="geometry" />
        </mxCell>
        <mxCell id="KKkVXieI7hjPpSHDypNt-9" value="3.Quản lý&lt;div&gt;nhân viên&lt;/div&gt;" style="ellipse;whiteSpace=wrap;html=1;aspect=fixed;fontFamily=Helvetica;" parent="1" vertex="1">
          <mxGeometry x="-70" y="370" width="80" height="80" as="geometry" />
        </mxCell>
        <mxCell id="KKkVXieI7hjPpSHDypNt-10" value="&lt;div&gt;Dữ liệu&lt;/div&gt;&lt;div&gt;khách hàng&lt;/div&gt;" style="edgeStyle=orthogonalEdgeStyle;rounded=0;orthogonalLoop=1;jettySize=auto;html=1;" parent="1" source="KKkVXieI7hjPpSHDypNt-12" target="KKkVXieI7hjPpSHDypNt-23" edge="1">
          <mxGeometry x="0.0437" relative="1" as="geometry">
            <Array as="points">
              <mxPoint x="630" y="910" />
            </Array>
            <mxPoint as="offset" />
          </mxGeometry>
        </mxCell>
        <mxCell id="KKkVXieI7hjPpSHDypNt-11" value="Thông báo" style="edgeStyle=orthogonalEdgeStyle;rounded=0;orthogonalLoop=1;jettySize=auto;html=1;" parent="1" edge="1">
          <mxGeometry x="-0.359" relative="1" as="geometry">
            <Array as="points">
              <mxPoint x="129.97" y="920" />
            </Array>
            <mxPoint as="offset" />
            <mxPoint x="393.97" y="920" as="sourcePoint" />
            <mxPoint x="130.0044827586207" y="610" as="targetPoint" />
          </mxGeometry>
        </mxCell>
        <mxCell id="KKkVXieI7hjPpSHDypNt-12" value="4.Quản lý&amp;nbsp;&lt;div&gt;khách hàng&lt;/div&gt;" style="ellipse;whiteSpace=wrap;html=1;aspect=fixed;fontFamily=Helvetica;" parent="1" vertex="1">
          <mxGeometry x="374" y="880" width="80" height="80" as="geometry" />
        </mxCell>
        <mxCell id="KKkVXieI7hjPpSHDypNt-13" value="5.Quản lý&lt;br&gt;mặt hàng" style="ellipse;whiteSpace=wrap;html=1;aspect=fixed;fontFamily=Helvetica;" parent="1" vertex="1">
          <mxGeometry x="-190" y="540" width="80" height="80" as="geometry" />
        </mxCell>
        <mxCell id="KKkVXieI7hjPpSHDypNt-48" value="thông tin phiếu&amp;nbsp;&lt;div&gt;nhập&lt;/div&gt;" style="edgeStyle=orthogonalEdgeStyle;rounded=0;orthogonalLoop=1;jettySize=auto;html=1;" parent="1" source="KKkVXieI7hjPpSHDypNt-14" target="KKkVXieI7hjPpSHDypNt-26" edge="1">
          <mxGeometry x="-0.0065" relative="1" as="geometry">
            <mxPoint as="offset" />
          </mxGeometry>
        </mxCell>
        <mxCell id="KKkVXieI7hjPpSHDypNt-49" value="&lt;div&gt;Dữ liệu&lt;/div&gt;&lt;div&gt;mặt hàng&lt;/div&gt;" style="edgeStyle=orthogonalEdgeStyle;rounded=0;orthogonalLoop=1;jettySize=auto;html=1;" parent="1" source="KKkVXieI7hjPpSHDypNt-14" target="KKkVXieI7hjPpSHDypNt-25" edge="1">
          <mxGeometry x="0.6915" relative="1" as="geometry">
            <Array as="points">
              <mxPoint x="-280" y="160" />
            </Array>
            <mxPoint as="offset" />
          </mxGeometry>
        </mxCell>
        <mxCell id="KKkVXieI7hjPpSHDypNt-14" value="6.Quản lý&lt;div&gt;nhập hàng&lt;/div&gt;" style="ellipse;whiteSpace=wrap;html=1;aspect=fixed;fontFamily=Helvetica;" parent="1" vertex="1">
          <mxGeometry x="-290" y="640" width="80" height="80" as="geometry" />
        </mxCell>
        <mxCell id="KKkVXieI7hjPpSHDypNt-51" value="Thông báo" style="edgeStyle=orthogonalEdgeStyle;rounded=0;orthogonalLoop=1;jettySize=auto;html=1;" parent="1" source="KKkVXieI7hjPpSHDypNt-15" target="KKkVXieI7hjPpSHDypNt-31" edge="1">
          <mxGeometry x="-0.2645" relative="1" as="geometry">
            <Array as="points">
              <mxPoint x="110" y="840" />
            </Array>
            <mxPoint as="offset" />
          </mxGeometry>
        </mxCell>
        <mxCell id="KKkVXieI7hjPpSHDypNt-15" value="7.Quản lý&lt;div&gt;phiếu nhập&lt;/div&gt;" style="ellipse;whiteSpace=wrap;html=1;aspect=fixed;fontFamily=Helvetica;" parent="1" vertex="1">
          <mxGeometry x="-140" y="790" width="80" height="80" as="geometry" />
        </mxCell>
        <mxCell id="KKkVXieI7hjPpSHDypNt-16" value="Dữ liệu danh sách&lt;div&gt;hoá đơn&lt;/div&gt;" style="edgeStyle=orthogonalEdgeStyle;rounded=0;orthogonalLoop=1;jettySize=auto;html=1;" parent="1" source="KKkVXieI7hjPpSHDypNt-17" target="KKkVXieI7hjPpSHDypNt-5" edge="1">
          <mxGeometry x="-0.1014" relative="1" as="geometry">
            <mxPoint x="589.9999999999998" y="680" as="targetPoint" />
            <Array as="points">
              <mxPoint x="510" y="615" />
              <mxPoint x="510" y="760" />
            </Array>
            <mxPoint as="offset" />
          </mxGeometry>
        </mxCell>
        <mxCell id="KKkVXieI7hjPpSHDypNt-17" value="Hóa đơn" style="html=1;dashed=0;whitespace=wrap;shape=partialRectangle;right=0;left=0;fontFamily=Helvetica;" parent="1" vertex="1">
          <mxGeometry x="364" y="600" width="100" height="30" as="geometry" />
        </mxCell>
        <mxCell id="KKkVXieI7hjPpSHDypNt-18" style="edgeStyle=orthogonalEdgeStyle;rounded=0;orthogonalLoop=1;jettySize=auto;html=1;" parent="1" source="KKkVXieI7hjPpSHDypNt-20" target="KKkVXieI7hjPpSHDypNt-8" edge="1">
          <mxGeometry relative="1" as="geometry">
            <mxPoint x="619.9655172413793" y="330" as="sourcePoint" />
            <mxPoint x="414" y="420" as="targetPoint" />
            <Array as="points">
              <mxPoint x="390" y="235" />
            </Array>
          </mxGeometry>
        </mxCell>
        <mxCell id="KKkVXieI7hjPpSHDypNt-19" value="Tên nhân viên" style="edgeLabel;html=1;align=center;verticalAlign=middle;resizable=0;points=[];" parent="KKkVXieI7hjPpSHDypNt-18" vertex="1" connectable="0">
          <mxGeometry x="-0.252" y="1" relative="1" as="geometry">
            <mxPoint x="142" y="1" as="offset" />
          </mxGeometry>
        </mxCell>
        <mxCell id="KKkVXieI7hjPpSHDypNt-20" value="Nhân viên" style="html=1;dashed=0;whitespace=wrap;shape=partialRectangle;right=0;left=0;fontFamily=Helvetica;" parent="1" vertex="1">
          <mxGeometry x="-80" y="220" width="100" height="30" as="geometry" />
        </mxCell>
        <mxCell id="KKkVXieI7hjPpSHDypNt-21" value="Tên khách hàng" style="edgeStyle=orthogonalEdgeStyle;rounded=0;orthogonalLoop=1;jettySize=auto;html=1;" parent="1" source="KKkVXieI7hjPpSHDypNt-23" edge="1">
          <mxGeometry x="0.1402" relative="1" as="geometry">
            <mxPoint x="613.5399999999997" y="440" as="sourcePoint" />
            <mxPoint x="453.9975131106458" y="400" as="targetPoint" />
            <Array as="points">
              <mxPoint x="650" y="400" />
            </Array>
            <mxPoint as="offset" />
          </mxGeometry>
        </mxCell>
        <mxCell id="KKkVXieI7hjPpSHDypNt-22" value="Kết quả&lt;div&gt;dữ liệu khách hàng&lt;/div&gt;" style="edgeStyle=orthogonalEdgeStyle;rounded=0;orthogonalLoop=1;jettySize=auto;html=1;" parent="1" source="KKkVXieI7hjPpSHDypNt-23" target="KKkVXieI7hjPpSHDypNt-12" edge="1">
          <mxGeometry x="0.0497" relative="1" as="geometry">
            <Array as="points">
              <mxPoint x="670" y="930" />
            </Array>
            <mxPoint as="offset" />
          </mxGeometry>
        </mxCell>
        <mxCell id="KKkVXieI7hjPpSHDypNt-23" value="Khách hàng" style="html=1;dashed=0;whitespace=wrap;shape=partialRectangle;right=0;left=0;fontFamily=Helvetica;" parent="1" vertex="1">
          <mxGeometry x="600" y="660" width="100" height="30" as="geometry" />
        </mxCell>
        <mxCell id="KKkVXieI7hjPpSHDypNt-24" value="Xác nhận&lt;div&gt;truy vấn&lt;/div&gt;" style="edgeStyle=orthogonalEdgeStyle;rounded=0;orthogonalLoop=1;jettySize=auto;html=1;" parent="1" source="KKkVXieI7hjPpSHDypNt-25" target="KKkVXieI7hjPpSHDypNt-8" edge="1">
          <mxGeometry x="0.3727" relative="1" as="geometry">
            <Array as="points">
              <mxPoint x="-110" y="100" />
              <mxPoint x="440" y="100" />
            </Array>
            <mxPoint as="offset" />
            <mxPoint x="-109.99999999999977" y="156.6944827586207" as="sourcePoint" />
            <mxPoint x="410.0000000000002" y="359.99939444035334" as="targetPoint" />
          </mxGeometry>
        </mxCell>
        <mxCell id="KKkVXieI7hjPpSHDypNt-25" value="Mặt hàng" style="html=1;dashed=0;whitespace=wrap;shape=partialRectangle;right=0;left=0;fontFamily=Helvetica;" parent="1" vertex="1">
          <mxGeometry x="-190" y="140" width="100" height="30" as="geometry" />
        </mxCell>
        <mxCell id="KKkVXieI7hjPpSHDypNt-26" value="Phiếu nhập" style="html=1;dashed=0;whitespace=wrap;shape=partialRectangle;right=0;left=0;fontFamily=Helvetica;" parent="1" vertex="1">
          <mxGeometry x="-525" y="665" width="100" height="30" as="geometry" />
        </mxCell>
        <mxCell id="KKkVXieI7hjPpSHDypNt-27" style="edgeStyle=orthogonalEdgeStyle;rounded=0;orthogonalLoop=1;jettySize=auto;html=1;" parent="1" source="KKkVXieI7hjPpSHDypNt-31" target="KKkVXieI7hjPpSHDypNt-8" edge="1">
          <mxGeometry relative="1" as="geometry">
            <Array as="points">
              <mxPoint x="240" y="580" />
              <mxPoint x="240" y="410" />
            </Array>
          </mxGeometry>
        </mxCell>
        <mxCell id="KKkVXieI7hjPpSHDypNt-28" value="Giỏ hàng" style="edgeLabel;html=1;align=center;verticalAlign=middle;resizable=0;points=[];" parent="KKkVXieI7hjPpSHDypNt-27" vertex="1" connectable="0">
          <mxGeometry x="0.0062" relative="1" as="geometry">
            <mxPoint y="-47" as="offset" />
          </mxGeometry>
        </mxCell>
        <mxCell id="KKkVXieI7hjPpSHDypNt-29" value="Thông tin&lt;div&gt;hoá đơn&lt;/div&gt;" style="edgeStyle=orthogonalEdgeStyle;rounded=0;orthogonalLoop=1;jettySize=auto;html=1;" parent="1" source="KKkVXieI7hjPpSHDypNt-31" target="KKkVXieI7hjPpSHDypNt-5" edge="1">
          <mxGeometry x="0.2057" relative="1" as="geometry">
            <Array as="points">
              <mxPoint x="240" y="590" />
              <mxPoint x="240" y="740" />
            </Array>
            <mxPoint as="offset" />
          </mxGeometry>
        </mxCell>
        <mxCell id="KKkVXieI7hjPpSHDypNt-30" value="Thông tin&lt;div&gt;khách hàng&lt;/div&gt;" style="edgeStyle=orthogonalEdgeStyle;rounded=0;orthogonalLoop=1;jettySize=auto;html=1;" parent="1" edge="1">
          <mxGeometry x="0.1765" relative="1" as="geometry">
            <Array as="points">
              <mxPoint x="150" y="860" />
              <mxPoint x="424" y="860" />
            </Array>
            <mxPoint as="offset" />
            <mxPoint x="150" y="610" as="sourcePoint" />
            <mxPoint x="424" y="880" as="targetPoint" />
          </mxGeometry>
        </mxCell>
        <mxCell id="KKkVXieI7hjPpSHDypNt-46" value="Danh sách&lt;div&gt;nhập hàng&lt;/div&gt;" style="edgeStyle=orthogonalEdgeStyle;rounded=0;orthogonalLoop=1;jettySize=auto;html=1;" parent="1" source="KKkVXieI7hjPpSHDypNt-31" target="KKkVXieI7hjPpSHDypNt-14" edge="1">
          <mxGeometry x="-0.391" relative="1" as="geometry">
            <Array as="points">
              <mxPoint x="90" y="670" />
            </Array>
            <mxPoint as="offset" />
          </mxGeometry>
        </mxCell>
        <mxCell id="KKkVXieI7hjPpSHDypNt-50" value="Thông tin&lt;div&gt;phiếu nhập&lt;/div&gt;" style="edgeStyle=orthogonalEdgeStyle;rounded=0;orthogonalLoop=1;jettySize=auto;html=1;" parent="1" source="KKkVXieI7hjPpSHDypNt-31" target="KKkVXieI7hjPpSHDypNt-15" edge="1">
          <mxGeometry x="0.533" relative="1" as="geometry">
            <Array as="points">
              <mxPoint x="100" y="810" />
            </Array>
            <mxPoint as="offset" />
          </mxGeometry>
        </mxCell>
        <mxCell id="KKkVXieI7hjPpSHDypNt-31" value="Quản lý" style="html=1;whiteSpace=wrap;" parent="1" vertex="1">
          <mxGeometry x="70" y="560" width="110" height="50" as="geometry" />
        </mxCell>
        <mxCell id="KKkVXieI7hjPpSHDypNt-36" value="Thông tin&lt;div&gt;Nhân viên&lt;/div&gt;" style="edgeStyle=orthogonalEdgeStyle;rounded=0;orthogonalLoop=1;jettySize=auto;html=1;" parent="1" source="KKkVXieI7hjPpSHDypNt-31" target="KKkVXieI7hjPpSHDypNt-9" edge="1">
          <mxGeometry x="0.3041" relative="1" as="geometry">
            <Array as="points">
              <mxPoint x="110" y="410" />
            </Array>
            <mxPoint as="offset" />
            <mxPoint x="150" y="620" as="sourcePoint" />
            <mxPoint x="424" y="890" as="targetPoint" />
          </mxGeometry>
        </mxCell>
        <mxCell id="KKkVXieI7hjPpSHDypNt-37" value="&lt;div&gt;Dữ liệu&amp;nbsp;&lt;/div&gt;&lt;div&gt;nhân viên&lt;/div&gt;" style="edgeStyle=orthogonalEdgeStyle;rounded=0;orthogonalLoop=1;jettySize=auto;html=1;" parent="1" source="KKkVXieI7hjPpSHDypNt-9" target="KKkVXieI7hjPpSHDypNt-20" edge="1">
          <mxGeometry x="-0.049" relative="1" as="geometry">
            <Array as="points">
              <mxPoint y="310" />
              <mxPoint y="310" />
            </Array>
            <mxPoint as="offset" />
            <mxPoint x="463" y="920" as="sourcePoint" />
            <mxPoint x="640" y="700" as="targetPoint" />
          </mxGeometry>
        </mxCell>
        <mxCell id="KKkVXieI7hjPpSHDypNt-39" value="Kết quả&lt;div&gt;dữ liệu&lt;/div&gt;&lt;div&gt;nhân viên&lt;/div&gt;" style="edgeStyle=orthogonalEdgeStyle;rounded=0;orthogonalLoop=1;jettySize=auto;html=1;" parent="1" source="KKkVXieI7hjPpSHDypNt-20" target="KKkVXieI7hjPpSHDypNt-9" edge="1">
          <mxGeometry x="0.0497" relative="1" as="geometry">
            <Array as="points">
              <mxPoint x="-60" y="290" />
              <mxPoint x="-60" y="290" />
            </Array>
            <mxPoint as="offset" />
            <mxPoint x="680" y="700" as="sourcePoint" />
            <mxPoint x="463" y="940" as="targetPoint" />
          </mxGeometry>
        </mxCell>
        <mxCell id="KKkVXieI7hjPpSHDypNt-40" value="Thông báo" style="edgeStyle=orthogonalEdgeStyle;rounded=0;orthogonalLoop=1;jettySize=auto;html=1;" parent="1" source="KKkVXieI7hjPpSHDypNt-9" target="KKkVXieI7hjPpSHDypNt-31" edge="1">
          <mxGeometry x="-0.4225" relative="1" as="geometry">
            <Array as="points">
              <mxPoint x="-30" y="510" />
              <mxPoint x="80" y="510" />
            </Array>
            <mxPoint as="offset" />
            <mxPoint x="50" y="520" as="sourcePoint" />
            <mxPoint x="120" y="620" as="targetPoint" />
          </mxGeometry>
        </mxCell>
        <mxCell id="KKkVXieI7hjPpSHDypNt-41" value="Thông tin&lt;div&gt;mặt hàng&lt;/div&gt;" style="edgeStyle=orthogonalEdgeStyle;rounded=0;orthogonalLoop=1;jettySize=auto;html=1;" parent="1" source="KKkVXieI7hjPpSHDypNt-31" target="KKkVXieI7hjPpSHDypNt-13" edge="1">
          <mxGeometry x="-0.007" relative="1" as="geometry">
            <Array as="points">
              <mxPoint x="-40" y="570" />
              <mxPoint x="-40" y="570" />
            </Array>
            <mxPoint as="offset" />
            <mxPoint x="120" y="570" as="sourcePoint" />
            <mxPoint x="20" y="420" as="targetPoint" />
          </mxGeometry>
        </mxCell>
        <mxCell id="KKkVXieI7hjPpSHDypNt-42" value="&lt;div&gt;Dữ liệu&lt;/div&gt;&lt;div&gt;mặt hàng&lt;/div&gt;" style="edgeStyle=orthogonalEdgeStyle;rounded=0;orthogonalLoop=1;jettySize=auto;html=1;" parent="1" source="KKkVXieI7hjPpSHDypNt-13" target="KKkVXieI7hjPpSHDypNt-25" edge="1">
          <mxGeometry x="-0.1978" relative="1" as="geometry">
            <Array as="points">
              <mxPoint x="-120" y="360" />
              <mxPoint x="-120" y="360" />
            </Array>
            <mxPoint as="offset" />
            <mxPoint x="10" y="394" as="sourcePoint" />
            <mxPoint x="10" y="260" as="targetPoint" />
          </mxGeometry>
        </mxCell>
        <mxCell id="KKkVXieI7hjPpSHDypNt-43" value="Kết quả&lt;div&gt;dữ liệu&lt;/div&gt;&lt;div&gt;mặt hàng&lt;/div&gt;" style="edgeStyle=orthogonalEdgeStyle;rounded=0;orthogonalLoop=1;jettySize=auto;html=1;" parent="1" source="KKkVXieI7hjPpSHDypNt-25" target="KKkVXieI7hjPpSHDypNt-13" edge="1">
          <mxGeometry x="0.0521" relative="1" as="geometry">
            <Array as="points">
              <mxPoint x="-160" y="360" />
              <mxPoint x="-160" y="360" />
            </Array>
            <mxPoint as="offset" />
            <mxPoint x="-50" y="260" as="sourcePoint" />
            <mxPoint x="-50" y="394" as="targetPoint" />
          </mxGeometry>
        </mxCell>
        <mxCell id="KKkVXieI7hjPpSHDypNt-45" value="Thông báo" style="edgeStyle=orthogonalEdgeStyle;rounded=0;orthogonalLoop=1;jettySize=auto;html=1;" parent="1" source="KKkVXieI7hjPpSHDypNt-13" target="KKkVXieI7hjPpSHDypNt-31" edge="1">
          <mxGeometry x="0.029" relative="1" as="geometry">
            <Array as="points">
              <mxPoint x="-20" y="600" />
              <mxPoint x="-20" y="600" />
            </Array>
            <mxPoint as="offset" />
            <mxPoint x="-20" y="460" as="sourcePoint" />
            <mxPoint x="90" y="570" as="targetPoint" />
          </mxGeometry>
        </mxCell>
        <mxCell id="KKkVXieI7hjPpSHDypNt-52" value="Dữ liệu phiếu nhập" style="edgeStyle=orthogonalEdgeStyle;rounded=0;orthogonalLoop=1;jettySize=auto;html=1;" parent="1" source="KKkVXieI7hjPpSHDypNt-15" target="KKkVXieI7hjPpSHDypNt-26" edge="1">
          <mxGeometry x="-0.2728" relative="1" as="geometry">
            <Array as="points">
              <mxPoint x="-450" y="810" />
            </Array>
            <mxPoint as="offset" />
            <mxPoint x="10" y="394" as="sourcePoint" />
            <mxPoint x="10" y="260" as="targetPoint" />
          </mxGeometry>
        </mxCell>
        <mxCell id="KKkVXieI7hjPpSHDypNt-53" value="Kết quả dữ liệu phiếu nhập" style="edgeStyle=orthogonalEdgeStyle;rounded=0;orthogonalLoop=1;jettySize=auto;html=1;" parent="1" source="KKkVXieI7hjPpSHDypNt-26" target="KKkVXieI7hjPpSHDypNt-15" edge="1">
          <mxGeometry x="0.0497" relative="1" as="geometry">
            <Array as="points">
              <mxPoint x="-475" y="830" />
            </Array>
            <mxPoint as="offset" />
            <mxPoint x="-50" y="260" as="sourcePoint" />
            <mxPoint x="-50" y="393" as="targetPoint" />
          </mxGeometry>
        </mxCell>
        <mxCell id="OTVYzY6zqEXrlStpBuFX-2" value="Tên&amp;nbsp;&lt;div&gt;nhà cung cấp&lt;/div&gt;" style="edgeStyle=orthogonalEdgeStyle;rounded=0;orthogonalLoop=1;jettySize=auto;html=1;" parent="1" source="OTVYzY6zqEXrlStpBuFX-1" target="KKkVXieI7hjPpSHDypNt-14" edge="1">
          <mxGeometry x="-0.1765" relative="1" as="geometry">
            <mxPoint as="offset" />
          </mxGeometry>
        </mxCell>
        <mxCell id="OTVYzY6zqEXrlStpBuFX-3" value="Tên&lt;div&gt;nhà cung cấp&lt;/div&gt;" style="edgeStyle=orthogonalEdgeStyle;rounded=0;orthogonalLoop=1;jettySize=auto;html=1;" parent="1" source="OTVYzY6zqEXrlStpBuFX-1" target="KKkVXieI7hjPpSHDypNt-15" edge="1">
          <mxGeometry x="0.1111" relative="1" as="geometry">
            <Array as="points">
              <mxPoint x="40" y="770" />
              <mxPoint x="-100" y="770" />
            </Array>
            <mxPoint as="offset" />
          </mxGeometry>
        </mxCell>
        <mxCell id="OTVYzY6zqEXrlStpBuFX-1" value="Nhà cung cấp" style="html=1;dashed=0;whitespace=wrap;shape=partialRectangle;right=0;left=0;fontFamily=Helvetica;" parent="1" vertex="1">
          <mxGeometry x="-10" y="720" width="100" height="30" as="geometry" />
        </mxCell>
      </root>
    </mxGraphModel>
  </diagram>
  <diagram id="rHfka2n6u7_MhTj6lSrY" name="DFD Mức 2 - 1">
    <mxGraphModel dx="2261" dy="884" grid="1" gridSize="10" guides="1" tooltips="1" connect="1" arrows="1" fold="1" page="1" pageScale="1" pageWidth="827" pageHeight="1169" math="0" shadow="0">
      <root>
        <mxCell id="0" />
        <mxCell id="1" parent="0" />
        <mxCell id="EeCm8LWiky4h0auwdxvc-1" value="" style="rounded=0;whiteSpace=wrap;html=1;fontFamily=Helvetica;fontSize=12;dashed=1;" parent="1" vertex="1">
          <mxGeometry x="-290" y="560" width="640" height="400" as="geometry" />
        </mxCell>
        <mxCell id="RK-zLdKnqwbFZjVY-9bh-3" style="edgeStyle=orthogonalEdgeStyle;rounded=0;orthogonalLoop=1;jettySize=auto;html=1;" parent="1" source="N2hzH7HuGZRkew8EYmOe-1" target="2ZDK6xMHhTUXY_Oj2xKM-1" edge="1">
          <mxGeometry relative="1" as="geometry" />
        </mxCell>
        <mxCell id="N2hzH7HuGZRkew8EYmOe-1" value="1.1 Nhận thông tin&amp;nbsp;&lt;div&gt;giỏ hàng&lt;/div&gt;" style="ellipse;whiteSpace=wrap;html=1;aspect=fixed;fontFamily=Helvetica;" parent="1" vertex="1">
          <mxGeometry x="-170" y="620" width="80" height="80" as="geometry" />
        </mxCell>
        <mxCell id="pVaorPyLrsOADAvZHWZW-3" value="Giỏ hàng" style="rounded=0;orthogonalLoop=1;jettySize=auto;html=1;" parent="1" source="1sgaVBWk9vEX5sxwCDFi-1" target="N2hzH7HuGZRkew8EYmOe-1" edge="1">
          <mxGeometry relative="1" as="geometry" />
        </mxCell>
        <mxCell id="1sgaVBWk9vEX5sxwCDFi-1" value="Nhân viên &amp;amp;&lt;div&gt;&lt;span style=&quot;background-color: initial;&quot;&gt;Quản lý&lt;/span&gt;&lt;br&gt;&lt;/div&gt;" style="html=1;whiteSpace=wrap;" parent="1" vertex="1">
          <mxGeometry x="-460" y="710" width="110" height="50" as="geometry" />
        </mxCell>
        <mxCell id="RK-zLdKnqwbFZjVY-9bh-4" style="edgeStyle=orthogonalEdgeStyle;rounded=0;orthogonalLoop=1;jettySize=auto;html=1;" parent="1" source="2ZDK6xMHhTUXY_Oj2xKM-1" target="2ZDK6xMHhTUXY_Oj2xKM-2" edge="1">
          <mxGeometry relative="1" as="geometry" />
        </mxCell>
        <mxCell id="2ZDK6xMHhTUXY_Oj2xKM-1" value="1.2 Lấy tên&lt;br&gt;nhân viên" style="ellipse;whiteSpace=wrap;html=1;aspect=fixed;fontFamily=Helvetica;" parent="1" vertex="1">
          <mxGeometry y="620" width="80" height="80" as="geometry" />
        </mxCell>
        <mxCell id="RK-zLdKnqwbFZjVY-9bh-8" style="edgeStyle=orthogonalEdgeStyle;rounded=0;orthogonalLoop=1;jettySize=auto;html=1;" parent="1" source="2ZDK6xMHhTUXY_Oj2xKM-2" target="pVaorPyLrsOADAvZHWZW-2" edge="1">
          <mxGeometry relative="1" as="geometry" />
        </mxCell>
        <mxCell id="2ZDK6xMHhTUXY_Oj2xKM-2" value="1.3 Lấy tên khách hàng" style="ellipse;whiteSpace=wrap;html=1;aspect=fixed;fontFamily=Helvetica;" parent="1" vertex="1">
          <mxGeometry x="180" y="620" width="80" height="80" as="geometry" />
        </mxCell>
        <mxCell id="RK-zLdKnqwbFZjVY-9bh-10" value="Dữ liệu&amp;nbsp;&lt;div&gt;mặt hàng&lt;/div&gt;" style="edgeStyle=orthogonalEdgeStyle;rounded=0;orthogonalLoop=1;jettySize=auto;html=1;" parent="1" source="pVaorPyLrsOADAvZHWZW-1" target="RK-zLdKnqwbFZjVY-9bh-7" edge="1">
          <mxGeometry x="-0.1619" relative="1" as="geometry">
            <mxPoint y="876.457513110646" as="sourcePoint" />
            <mxPoint y="1020" as="targetPoint" />
            <Array as="points">
              <mxPoint x="-30" y="930" />
              <mxPoint x="-30" y="930" />
            </Array>
            <mxPoint as="offset" />
          </mxGeometry>
        </mxCell>
        <mxCell id="pVaorPyLrsOADAvZHWZW-1" value="1.4 Cập nhật&lt;div&gt;số lượng&lt;/div&gt;&lt;div&gt;mặt hàng&lt;/div&gt;" style="ellipse;whiteSpace=wrap;html=1;aspect=fixed;fontFamily=Helvetica;" parent="1" vertex="1">
          <mxGeometry x="-70" y="810" width="80" height="80" as="geometry" />
        </mxCell>
        <mxCell id="RK-zLdKnqwbFZjVY-9bh-14" value="Thông tin&amp;nbsp;&lt;div&gt;hoá đơn&lt;/div&gt;" style="edgeStyle=orthogonalEdgeStyle;rounded=0;orthogonalLoop=1;jettySize=auto;html=1;" parent="1" source="pVaorPyLrsOADAvZHWZW-2" target="RK-zLdKnqwbFZjVY-9bh-13" edge="1">
          <mxGeometry x="-0.2" relative="1" as="geometry">
            <Array as="points">
              <mxPoint x="300" y="850" />
              <mxPoint x="300" y="850" />
            </Array>
            <mxPoint as="offset" />
          </mxGeometry>
        </mxCell>
        <mxCell id="RK-zLdKnqwbFZjVY-9bh-15" value="Thông báo" style="rounded=0;orthogonalLoop=1;jettySize=auto;html=1;" parent="1" source="pVaorPyLrsOADAvZHWZW-1" target="1sgaVBWk9vEX5sxwCDFi-1" edge="1">
          <mxGeometry relative="1" as="geometry" />
        </mxCell>
        <mxCell id="R67BlX3kifzaIB8P5F16-1" style="edgeStyle=orthogonalEdgeStyle;rounded=0;orthogonalLoop=1;jettySize=auto;html=1;" parent="1" source="pVaorPyLrsOADAvZHWZW-2" target="pVaorPyLrsOADAvZHWZW-1" edge="1">
          <mxGeometry relative="1" as="geometry" />
        </mxCell>
        <mxCell id="pVaorPyLrsOADAvZHWZW-2" value="1.4. Lập&amp;nbsp;&lt;div&gt;hoá đơn&lt;/div&gt;" style="ellipse;whiteSpace=wrap;html=1;aspect=fixed;fontFamily=Helvetica;" parent="1" vertex="1">
          <mxGeometry x="180" y="810" width="80" height="80" as="geometry" />
        </mxCell>
        <mxCell id="RK-zLdKnqwbFZjVY-9bh-2" value="Tên&lt;div&gt;nhân viên&lt;/div&gt;" style="edgeStyle=orthogonalEdgeStyle;rounded=0;orthogonalLoop=1;jettySize=auto;html=1;" parent="1" source="RK-zLdKnqwbFZjVY-9bh-1" target="2ZDK6xMHhTUXY_Oj2xKM-1" edge="1">
          <mxGeometry relative="1" as="geometry" />
        </mxCell>
        <mxCell id="RK-zLdKnqwbFZjVY-9bh-1" value="Nhân viên" style="html=1;dashed=0;whitespace=wrap;shape=partialRectangle;right=0;left=0;fontFamily=Helvetica;" parent="1" vertex="1">
          <mxGeometry x="-10" y="510" width="100" height="30" as="geometry" />
        </mxCell>
        <mxCell id="RK-zLdKnqwbFZjVY-9bh-6" value="Tên&amp;nbsp;&lt;div&gt;khách hàng&lt;/div&gt;" style="edgeStyle=orthogonalEdgeStyle;rounded=0;orthogonalLoop=1;jettySize=auto;html=1;" parent="1" source="RK-zLdKnqwbFZjVY-9bh-5" target="2ZDK6xMHhTUXY_Oj2xKM-2" edge="1">
          <mxGeometry relative="1" as="geometry">
            <mxPoint as="offset" />
          </mxGeometry>
        </mxCell>
        <mxCell id="RK-zLdKnqwbFZjVY-9bh-5" value="Khách hàng" style="html=1;dashed=0;whitespace=wrap;shape=partialRectangle;right=0;left=0;fontFamily=Helvetica;" parent="1" vertex="1">
          <mxGeometry x="170" y="510" width="100" height="30" as="geometry" />
        </mxCell>
        <mxCell id="RK-zLdKnqwbFZjVY-9bh-7" value="Mặt hàng" style="html=1;dashed=0;whitespace=wrap;shape=partialRectangle;right=0;left=0;fontFamily=Helvetica;" parent="1" vertex="1">
          <mxGeometry x="-80" y="980" width="100" height="30" as="geometry" />
        </mxCell>
        <mxCell id="RK-zLdKnqwbFZjVY-9bh-13" value="Hoá đơn" style="html=1;dashed=0;whitespace=wrap;shape=partialRectangle;right=0;left=0;fontFamily=Helvetica;" parent="1" vertex="1">
          <mxGeometry x="370" y="835" width="100" height="30" as="geometry" />
        </mxCell>
      </root>
    </mxGraphModel>
  </diagram>
  <diagram id="6TKe8nC9MQQhFLDB9NhV" name="DFD Mức 2 - 2">
    <mxGraphModel dx="2284" dy="884" grid="1" gridSize="10" guides="1" tooltips="1" connect="1" arrows="1" fold="1" page="1" pageScale="1" pageWidth="850" pageHeight="1100" math="0" shadow="0">
      <root>
        <mxCell id="0" />
        <mxCell id="1" parent="0" />
        <mxCell id="YVPalhqUHx0osjLnz4n1-1" value="" style="rounded=0;whiteSpace=wrap;html=1;fontFamily=Helvetica;fontSize=12;dashed=1;" parent="1" vertex="1">
          <mxGeometry x="-280" y="580" width="440" height="320" as="geometry" />
        </mxCell>
        <mxCell id="YVPalhqUHx0osjLnz4n1-2" style="edgeStyle=orthogonalEdgeStyle;rounded=0;orthogonalLoop=1;jettySize=auto;html=1;" parent="1" source="YVPalhqUHx0osjLnz4n1-3" target="KPPGULGocumS886rNKv4-1" edge="1">
          <mxGeometry relative="1" as="geometry">
            <mxPoint y="660" as="targetPoint" />
          </mxGeometry>
        </mxCell>
        <mxCell id="YVPalhqUHx0osjLnz4n1-3" value="2.1 Nhận&lt;div&gt;thông tin&lt;/div&gt;&lt;div&gt;hoá đơn&lt;/div&gt;" style="ellipse;whiteSpace=wrap;html=1;aspect=fixed;fontFamily=Helvetica;" parent="1" vertex="1">
          <mxGeometry x="-170" y="620" width="80" height="80" as="geometry" />
        </mxCell>
        <mxCell id="YVPalhqUHx0osjLnz4n1-4" value="Hoá đơn" style="rounded=0;orthogonalLoop=1;jettySize=auto;html=1;" parent="1" source="YVPalhqUHx0osjLnz4n1-5" target="YVPalhqUHx0osjLnz4n1-3" edge="1">
          <mxGeometry relative="1" as="geometry" />
        </mxCell>
        <mxCell id="YVPalhqUHx0osjLnz4n1-5" value="Nhân viên &amp;amp;&lt;div&gt;&lt;span style=&quot;background-color: initial;&quot;&gt;Quản lý&lt;/span&gt;&lt;br&gt;&lt;/div&gt;" style="html=1;whiteSpace=wrap;" parent="1" vertex="1">
          <mxGeometry x="-425" y="715" width="110" height="50" as="geometry" />
        </mxCell>
        <mxCell id="KPPGULGocumS886rNKv4-4" style="edgeStyle=orthogonalEdgeStyle;rounded=0;orthogonalLoop=1;jettySize=auto;html=1;" parent="1" source="YVPalhqUHx0osjLnz4n1-17" target="KPPGULGocumS886rNKv4-1" edge="1">
          <mxGeometry relative="1" as="geometry" />
        </mxCell>
        <mxCell id="YVPalhqUHx0osjLnz4n1-17" value="Hoá đơn" style="html=1;dashed=0;whitespace=wrap;shape=partialRectangle;right=0;left=0;fontFamily=Helvetica;" parent="1" vertex="1">
          <mxGeometry x="180" y="645" width="100" height="30" as="geometry" />
        </mxCell>
        <mxCell id="KPPGULGocumS886rNKv4-6" style="rounded=0;orthogonalLoop=1;jettySize=auto;html=1;" parent="1" source="KPPGULGocumS886rNKv4-1" target="KPPGULGocumS886rNKv4-5" edge="1">
          <mxGeometry relative="1" as="geometry" />
        </mxCell>
        <mxCell id="KPPGULGocumS886rNKv4-1" value="2.2 Lấy chi&amp;nbsp;&lt;div&gt;tiết hoá đơn&lt;/div&gt;" style="ellipse;whiteSpace=wrap;html=1;aspect=fixed;fontFamily=Helvetica;" parent="1" vertex="1">
          <mxGeometry y="620" width="80" height="80" as="geometry" />
        </mxCell>
        <mxCell id="eCobTSL2_PgrogaD3C6Y-1" value="Thông báo" style="rounded=0;orthogonalLoop=1;jettySize=auto;html=1;" parent="1" source="KPPGULGocumS886rNKv4-5" target="YVPalhqUHx0osjLnz4n1-5" edge="1">
          <mxGeometry relative="1" as="geometry" />
        </mxCell>
        <mxCell id="KPPGULGocumS886rNKv4-5" value="2.3 Tính toán&lt;div&gt;tiền hoá đơn&lt;/div&gt;" style="ellipse;whiteSpace=wrap;html=1;aspect=fixed;fontFamily=Helvetica;" parent="1" vertex="1">
          <mxGeometry x="-170" y="790" width="80" height="80" as="geometry" />
        </mxCell>
      </root>
    </mxGraphModel>
  </diagram>
  <diagram id="FOdj72lVfYVYUL7TyO1f" name="DFD Mức 2 - 3">
    <mxGraphModel dx="2284" dy="884" grid="1" gridSize="10" guides="1" tooltips="1" connect="1" arrows="1" fold="1" page="1" pageScale="1" pageWidth="850" pageHeight="1100" math="0" shadow="0">
      <root>
        <mxCell id="0" />
        <mxCell id="1" parent="0" />
        <mxCell id="xkfxSshzz2Sa2Kh1uvO2-1" value="" style="rounded=0;whiteSpace=wrap;html=1;fontFamily=Helvetica;fontSize=12;dashed=1;" parent="1" vertex="1">
          <mxGeometry x="-290" y="560" width="450" height="360" as="geometry" />
        </mxCell>
        <mxCell id="xkfxSshzz2Sa2Kh1uvO2-2" style="edgeStyle=orthogonalEdgeStyle;rounded=0;orthogonalLoop=1;jettySize=auto;html=1;entryX=0;entryY=0.5;entryDx=0;entryDy=0;" parent="1" source="xkfxSshzz2Sa2Kh1uvO2-3" target="bHVohzK2uNjCOU0kcwC0-1" edge="1">
          <mxGeometry relative="1" as="geometry">
            <mxPoint y="660" as="targetPoint" />
          </mxGeometry>
        </mxCell>
        <mxCell id="xkfxSshzz2Sa2Kh1uvO2-3" value="3.1 Nhận thông tin" style="ellipse;whiteSpace=wrap;html=1;aspect=fixed;fontFamily=Helvetica;" parent="1" vertex="1">
          <mxGeometry x="-180" y="620" width="80" height="80" as="geometry" />
        </mxCell>
        <mxCell id="xkfxSshzz2Sa2Kh1uvO2-4" value="Nhân viên" style="rounded=0;orthogonalLoop=1;jettySize=auto;html=1;" parent="1" source="xkfxSshzz2Sa2Kh1uvO2-5" target="xkfxSshzz2Sa2Kh1uvO2-3" edge="1">
          <mxGeometry x="0.0069" relative="1" as="geometry">
            <mxPoint as="offset" />
          </mxGeometry>
        </mxCell>
        <mxCell id="xkfxSshzz2Sa2Kh1uvO2-5" value="&lt;div&gt;&lt;span style=&quot;background-color: initial;&quot;&gt;Quản lý&lt;/span&gt;&lt;br&gt;&lt;/div&gt;" style="html=1;whiteSpace=wrap;" parent="1" vertex="1">
          <mxGeometry x="-460" y="710" width="110" height="50" as="geometry" />
        </mxCell>
        <mxCell id="xkfxSshzz2Sa2Kh1uvO2-13" value="Thông báo" style="rounded=0;orthogonalLoop=1;jettySize=auto;html=1;exitX=0;exitY=0.5;exitDx=0;exitDy=0;" parent="1" source="_I68EP26RR61EmBXur5g-1" target="xkfxSshzz2Sa2Kh1uvO2-5" edge="1">
          <mxGeometry relative="1" as="geometry">
            <mxPoint x="-68.26888579118008" y="838.3598805718493" as="sourcePoint" />
          </mxGeometry>
        </mxCell>
        <mxCell id="xkfxSshzz2Sa2Kh1uvO2-17" value="Nhân viên" style="html=1;dashed=0;whitespace=wrap;shape=partialRectangle;right=0;left=0;fontFamily=Helvetica;" parent="1" vertex="1">
          <mxGeometry x="190" y="645" width="100" height="30" as="geometry" />
        </mxCell>
        <mxCell id="asGFZKbVlGKklbWhdBex-3" style="rounded=0;orthogonalLoop=1;jettySize=auto;html=1;" parent="1" source="bHVohzK2uNjCOU0kcwC0-1" target="sWCFlSIX79xqwHQMogFV-1" edge="1">
          <mxGeometry relative="1" as="geometry" />
        </mxCell>
        <mxCell id="bHVohzK2uNjCOU0kcwC0-1" value="3.2 Lấy dữ&amp;nbsp;&lt;div&gt;liệu chi tiết&amp;nbsp;&lt;/div&gt;" style="ellipse;whiteSpace=wrap;html=1;aspect=fixed;fontFamily=Helvetica;" parent="1" vertex="1">
          <mxGeometry x="-15" y="615" width="90" height="90" as="geometry" />
        </mxCell>
        <mxCell id="_I68EP26RR61EmBXur5g-1" value="3.4 Hiển thị thông tin" style="ellipse;whiteSpace=wrap;html=1;aspect=fixed;fontFamily=Helvetica;" parent="1" vertex="1">
          <mxGeometry x="-187.5" y="777.5" width="95" height="95" as="geometry" />
        </mxCell>
        <mxCell id="asGFZKbVlGKklbWhdBex-2" style="edgeStyle=orthogonalEdgeStyle;rounded=0;orthogonalLoop=1;jettySize=auto;html=1;exitX=0;exitY=0.5;exitDx=0;exitDy=0;entryX=1;entryY=0.5;entryDx=0;entryDy=0;" parent="1" source="xkfxSshzz2Sa2Kh1uvO2-17" target="bHVohzK2uNjCOU0kcwC0-1" edge="1">
          <mxGeometry relative="1" as="geometry">
            <mxPoint x="180" y="660" as="sourcePoint" />
            <mxPoint x="80" y="660" as="targetPoint" />
          </mxGeometry>
        </mxCell>
        <mxCell id="sWCFlSIX79xqwHQMogFV-4" style="edgeStyle=orthogonalEdgeStyle;rounded=0;orthogonalLoop=1;jettySize=auto;html=1;" edge="1" parent="1" source="sWCFlSIX79xqwHQMogFV-1" target="_I68EP26RR61EmBXur5g-1">
          <mxGeometry relative="1" as="geometry" />
        </mxCell>
        <mxCell id="sWCFlSIX79xqwHQMogFV-1" value="3.3 Lấy chi tiết&lt;div&gt;hoá đơn đã bán&lt;/div&gt;" style="ellipse;whiteSpace=wrap;html=1;aspect=fixed;fontFamily=Helvetica;" vertex="1" parent="1">
          <mxGeometry x="-15" y="780" width="90" height="90" as="geometry" />
        </mxCell>
        <mxCell id="sWCFlSIX79xqwHQMogFV-2" value="Hoá đơn" style="html=1;dashed=0;whitespace=wrap;shape=partialRectangle;right=0;left=0;fontFamily=Helvetica;" vertex="1" parent="1">
          <mxGeometry x="190" y="810" width="100" height="30" as="geometry" />
        </mxCell>
        <mxCell id="sWCFlSIX79xqwHQMogFV-3" style="edgeStyle=orthogonalEdgeStyle;rounded=0;orthogonalLoop=1;jettySize=auto;html=1;" edge="1" parent="1" source="sWCFlSIX79xqwHQMogFV-2" target="sWCFlSIX79xqwHQMogFV-1">
          <mxGeometry relative="1" as="geometry">
            <mxPoint x="200" y="670" as="sourcePoint" />
            <mxPoint x="80" y="670" as="targetPoint" />
          </mxGeometry>
        </mxCell>
      </root>
    </mxGraphModel>
  </diagram>
  <diagram id="jSvtrD8KVarA-UPweNRk" name="DFD Mức 2 - 4">
    <mxGraphModel dx="2284" dy="884" grid="1" gridSize="10" guides="1" tooltips="1" connect="1" arrows="1" fold="1" page="1" pageScale="1" pageWidth="850" pageHeight="1100" math="0" shadow="0">
      <root>
        <mxCell id="0" />
        <mxCell id="1" parent="0" />
        <mxCell id="5kHgGVFic1JClm2lRx4Z-1" value="" style="rounded=0;whiteSpace=wrap;html=1;fontFamily=Helvetica;fontSize=12;dashed=1;" vertex="1" parent="1">
          <mxGeometry x="-320" y="140" width="450" height="360" as="geometry" />
        </mxCell>
        <mxCell id="5kHgGVFic1JClm2lRx4Z-2" style="edgeStyle=orthogonalEdgeStyle;rounded=0;orthogonalLoop=1;jettySize=auto;html=1;entryX=0;entryY=0.5;entryDx=0;entryDy=0;" edge="1" parent="1" source="5kHgGVFic1JClm2lRx4Z-3" target="5kHgGVFic1JClm2lRx4Z-9">
          <mxGeometry relative="1" as="geometry">
            <mxPoint x="-30" y="240" as="targetPoint" />
          </mxGeometry>
        </mxCell>
        <mxCell id="5kHgGVFic1JClm2lRx4Z-3" value="4.1 Nhận thông tin" style="ellipse;whiteSpace=wrap;html=1;aspect=fixed;fontFamily=Helvetica;" vertex="1" parent="1">
          <mxGeometry x="-210" y="200" width="80" height="80" as="geometry" />
        </mxCell>
        <mxCell id="5kHgGVFic1JClm2lRx4Z-4" value="Khách hàng" style="rounded=0;orthogonalLoop=1;jettySize=auto;html=1;" edge="1" parent="1" source="5kHgGVFic1JClm2lRx4Z-5" target="5kHgGVFic1JClm2lRx4Z-3">
          <mxGeometry x="0.0069" relative="1" as="geometry">
            <mxPoint as="offset" />
          </mxGeometry>
        </mxCell>
        <mxCell id="5kHgGVFic1JClm2lRx4Z-5" value="Nhân viên &amp;amp;&lt;br&gt;Quản lý" style="html=1;whiteSpace=wrap;" vertex="1" parent="1">
          <mxGeometry x="-490" y="290" width="110" height="50" as="geometry" />
        </mxCell>
        <mxCell id="5kHgGVFic1JClm2lRx4Z-6" value="Thông báo" style="rounded=0;orthogonalLoop=1;jettySize=auto;html=1;exitX=0;exitY=0.5;exitDx=0;exitDy=0;" edge="1" parent="1" source="5kHgGVFic1JClm2lRx4Z-10" target="5kHgGVFic1JClm2lRx4Z-5">
          <mxGeometry relative="1" as="geometry">
            <mxPoint x="-98.26888579118008" y="418.3598805718493" as="sourcePoint" />
          </mxGeometry>
        </mxCell>
        <mxCell id="5kHgGVFic1JClm2lRx4Z-7" value="Khách hàng" style="html=1;dashed=0;whitespace=wrap;shape=partialRectangle;right=0;left=0;fontFamily=Helvetica;" vertex="1" parent="1">
          <mxGeometry x="160" y="225" width="100" height="30" as="geometry" />
        </mxCell>
        <mxCell id="5kHgGVFic1JClm2lRx4Z-8" style="rounded=0;orthogonalLoop=1;jettySize=auto;html=1;" edge="1" parent="1" source="5kHgGVFic1JClm2lRx4Z-9" target="5kHgGVFic1JClm2lRx4Z-13">
          <mxGeometry relative="1" as="geometry" />
        </mxCell>
        <mxCell id="5kHgGVFic1JClm2lRx4Z-9" value="4.2 Lấy dữ&amp;nbsp;&lt;div&gt;liệu chi tiết&amp;nbsp;&lt;/div&gt;" style="ellipse;whiteSpace=wrap;html=1;aspect=fixed;fontFamily=Helvetica;" vertex="1" parent="1">
          <mxGeometry x="-45" y="195" width="90" height="90" as="geometry" />
        </mxCell>
        <mxCell id="5kHgGVFic1JClm2lRx4Z-10" value="4.4 Hiển thị thông tin" style="ellipse;whiteSpace=wrap;html=1;aspect=fixed;fontFamily=Helvetica;" vertex="1" parent="1">
          <mxGeometry x="-217.5" y="357.5" width="95" height="95" as="geometry" />
        </mxCell>
        <mxCell id="5kHgGVFic1JClm2lRx4Z-11" style="edgeStyle=orthogonalEdgeStyle;rounded=0;orthogonalLoop=1;jettySize=auto;html=1;exitX=0;exitY=0.5;exitDx=0;exitDy=0;entryX=1;entryY=0.5;entryDx=0;entryDy=0;" edge="1" parent="1" source="5kHgGVFic1JClm2lRx4Z-7" target="5kHgGVFic1JClm2lRx4Z-9">
          <mxGeometry relative="1" as="geometry">
            <mxPoint x="150" y="240" as="sourcePoint" />
            <mxPoint x="50" y="240" as="targetPoint" />
          </mxGeometry>
        </mxCell>
        <mxCell id="5kHgGVFic1JClm2lRx4Z-12" style="edgeStyle=orthogonalEdgeStyle;rounded=0;orthogonalLoop=1;jettySize=auto;html=1;" edge="1" parent="1" source="5kHgGVFic1JClm2lRx4Z-13" target="5kHgGVFic1JClm2lRx4Z-10">
          <mxGeometry relative="1" as="geometry" />
        </mxCell>
        <mxCell id="5kHgGVFic1JClm2lRx4Z-13" value="4.3 Lấy chi tiết&lt;div&gt;hoá đơn đã bán&lt;/div&gt;" style="ellipse;whiteSpace=wrap;html=1;aspect=fixed;fontFamily=Helvetica;" vertex="1" parent="1">
          <mxGeometry x="-45" y="360" width="90" height="90" as="geometry" />
        </mxCell>
        <mxCell id="5kHgGVFic1JClm2lRx4Z-14" value="Hoá đơn" style="html=1;dashed=0;whitespace=wrap;shape=partialRectangle;right=0;left=0;fontFamily=Helvetica;" vertex="1" parent="1">
          <mxGeometry x="160" y="390" width="100" height="30" as="geometry" />
        </mxCell>
        <mxCell id="5kHgGVFic1JClm2lRx4Z-15" style="edgeStyle=orthogonalEdgeStyle;rounded=0;orthogonalLoop=1;jettySize=auto;html=1;" edge="1" parent="1" source="5kHgGVFic1JClm2lRx4Z-14" target="5kHgGVFic1JClm2lRx4Z-13">
          <mxGeometry relative="1" as="geometry">
            <mxPoint x="170" y="250" as="sourcePoint" />
            <mxPoint x="50" y="250" as="targetPoint" />
          </mxGeometry>
        </mxCell>
      </root>
    </mxGraphModel>
  </diagram>
  <diagram id="6sfX2lnFDWDdWRvQaTTb" name="DFD Mức 2 - 5">
    <mxGraphModel dx="2284" dy="884" grid="1" gridSize="10" guides="1" tooltips="1" connect="1" arrows="1" fold="1" page="1" pageScale="1" pageWidth="850" pageHeight="1100" math="0" shadow="0">
      <root>
        <mxCell id="0" />
        <mxCell id="1" parent="0" />
        <mxCell id="sQBm8EwSTDBRd3ZX8ISv-1" value="" style="rounded=0;whiteSpace=wrap;html=1;fontFamily=Helvetica;fontSize=12;dashed=1;" parent="1" vertex="1">
          <mxGeometry x="-280" y="580" width="440" height="320" as="geometry" />
        </mxCell>
        <mxCell id="sQBm8EwSTDBRd3ZX8ISv-2" style="edgeStyle=orthogonalEdgeStyle;rounded=0;orthogonalLoop=1;jettySize=auto;html=1;" parent="1" source="sQBm8EwSTDBRd3ZX8ISv-3" target="sQBm8EwSTDBRd3ZX8ISv-9" edge="1">
          <mxGeometry relative="1" as="geometry">
            <mxPoint y="660" as="targetPoint" />
          </mxGeometry>
        </mxCell>
        <mxCell id="sQBm8EwSTDBRd3ZX8ISv-3" value="5.1 Nhận&lt;div&gt;thông tin&lt;/div&gt;&lt;div&gt;mặt hàng&lt;/div&gt;" style="ellipse;whiteSpace=wrap;html=1;aspect=fixed;fontFamily=Helvetica;" parent="1" vertex="1">
          <mxGeometry x="-170" y="620" width="80" height="80" as="geometry" />
        </mxCell>
        <mxCell id="sQBm8EwSTDBRd3ZX8ISv-4" value="Mặt hàng" style="rounded=0;orthogonalLoop=1;jettySize=auto;html=1;" parent="1" source="sQBm8EwSTDBRd3ZX8ISv-5" target="sQBm8EwSTDBRd3ZX8ISv-3" edge="1">
          <mxGeometry x="-0.0001" relative="1" as="geometry">
            <mxPoint as="offset" />
          </mxGeometry>
        </mxCell>
        <mxCell id="sQBm8EwSTDBRd3ZX8ISv-5" value="Nhân viên &amp;amp;&lt;div&gt;&lt;span style=&quot;background-color: initial;&quot;&gt;Quản lý&lt;/span&gt;&lt;br&gt;&lt;/div&gt;" style="html=1;whiteSpace=wrap;" parent="1" vertex="1">
          <mxGeometry x="-425" y="715" width="110" height="50" as="geometry" />
        </mxCell>
        <mxCell id="sQBm8EwSTDBRd3ZX8ISv-6" style="edgeStyle=orthogonalEdgeStyle;rounded=0;orthogonalLoop=1;jettySize=auto;html=1;" parent="1" source="sQBm8EwSTDBRd3ZX8ISv-7" target="sQBm8EwSTDBRd3ZX8ISv-9" edge="1">
          <mxGeometry relative="1" as="geometry" />
        </mxCell>
        <mxCell id="sQBm8EwSTDBRd3ZX8ISv-7" value="Mặt hàng" style="html=1;dashed=0;whitespace=wrap;shape=partialRectangle;right=0;left=0;fontFamily=Helvetica;" parent="1" vertex="1">
          <mxGeometry x="180" y="645" width="100" height="30" as="geometry" />
        </mxCell>
        <mxCell id="sQBm8EwSTDBRd3ZX8ISv-8" style="rounded=0;orthogonalLoop=1;jettySize=auto;html=1;" parent="1" source="sQBm8EwSTDBRd3ZX8ISv-9" target="_j147Wp4JzaZ0Cs5_cSu-1" edge="1">
          <mxGeometry relative="1" as="geometry" />
        </mxCell>
        <mxCell id="sQBm8EwSTDBRd3ZX8ISv-9" value="5.2 Lấy dữ liệu chi&amp;nbsp;&lt;div&gt;tiết mặt hàng&lt;/div&gt;" style="ellipse;whiteSpace=wrap;html=1;aspect=fixed;fontFamily=Helvetica;" parent="1" vertex="1">
          <mxGeometry y="620" width="80" height="80" as="geometry" />
        </mxCell>
        <mxCell id="sQBm8EwSTDBRd3ZX8ISv-10" value="Thông báo" style="rounded=0;orthogonalLoop=1;jettySize=auto;html=1;" parent="1" source="sQBm8EwSTDBRd3ZX8ISv-11" target="sQBm8EwSTDBRd3ZX8ISv-5" edge="1">
          <mxGeometry relative="1" as="geometry" />
        </mxCell>
        <mxCell id="sQBm8EwSTDBRd3ZX8ISv-11" value="5.4 Export Excel" style="ellipse;whiteSpace=wrap;html=1;aspect=fixed;fontFamily=Helvetica;" parent="1" vertex="1">
          <mxGeometry x="-170" y="770" width="80" height="80" as="geometry" />
        </mxCell>
        <mxCell id="_j147Wp4JzaZ0Cs5_cSu-2" style="edgeStyle=orthogonalEdgeStyle;rounded=0;orthogonalLoop=1;jettySize=auto;html=1;" parent="1" source="_j147Wp4JzaZ0Cs5_cSu-1" target="sQBm8EwSTDBRd3ZX8ISv-11" edge="1">
          <mxGeometry relative="1" as="geometry" />
        </mxCell>
        <mxCell id="_j147Wp4JzaZ0Cs5_cSu-1" value="5.3 Tính doanh thu tổng mặt&amp;nbsp;&lt;div&gt;hàng&lt;/div&gt;" style="ellipse;whiteSpace=wrap;html=1;aspect=fixed;fontFamily=Helvetica;" parent="1" vertex="1">
          <mxGeometry y="770" width="80" height="80" as="geometry" />
        </mxCell>
      </root>
    </mxGraphModel>
  </diagram>
  <diagram id="WHhCNRDn0qBHG1K9q_20" name="DFD Mức 2 - 6">
    <mxGraphModel dx="2284" dy="884" grid="1" gridSize="10" guides="1" tooltips="1" connect="1" arrows="1" fold="1" page="1" pageScale="1" pageWidth="850" pageHeight="1100" math="0" shadow="0">
      <root>
        <mxCell id="0" />
        <mxCell id="1" parent="0" />
        <mxCell id="LdKHLCZgjL9wfOJBAdJI-1" value="" style="rounded=0;whiteSpace=wrap;html=1;fontFamily=Helvetica;fontSize=12;dashed=1;" parent="1" vertex="1">
          <mxGeometry x="-290" y="600" width="480" height="470" as="geometry" />
        </mxCell>
        <mxCell id="LdKHLCZgjL9wfOJBAdJI-2" style="edgeStyle=orthogonalEdgeStyle;rounded=0;orthogonalLoop=1;jettySize=auto;html=1;" parent="1" source="LdKHLCZgjL9wfOJBAdJI-3" target="LdKHLCZgjL9wfOJBAdJI-7" edge="1">
          <mxGeometry relative="1" as="geometry" />
        </mxCell>
        <mxCell id="LdKHLCZgjL9wfOJBAdJI-3" value="7.1 Nhận danh sách&lt;div&gt;nhập hàng&lt;/div&gt;" style="ellipse;whiteSpace=wrap;html=1;aspect=fixed;fontFamily=Helvetica;" parent="1" vertex="1">
          <mxGeometry x="-160" y="630" width="80" height="80" as="geometry" />
        </mxCell>
        <mxCell id="LdKHLCZgjL9wfOJBAdJI-4" value="Phiếu nhập" style="rounded=0;orthogonalLoop=1;jettySize=auto;html=1;" parent="1" source="LdKHLCZgjL9wfOJBAdJI-5" target="LdKHLCZgjL9wfOJBAdJI-3" edge="1">
          <mxGeometry relative="1" as="geometry" />
        </mxCell>
        <mxCell id="LdKHLCZgjL9wfOJBAdJI-5" value="&lt;div&gt;Quản lý&lt;/div&gt;" style="html=1;whiteSpace=wrap;" parent="1" vertex="1">
          <mxGeometry x="-450" y="720" width="110" height="50" as="geometry" />
        </mxCell>
        <mxCell id="LdKHLCZgjL9wfOJBAdJI-6" style="edgeStyle=orthogonalEdgeStyle;rounded=0;orthogonalLoop=1;jettySize=auto;html=1;" parent="1" source="LdKHLCZgjL9wfOJBAdJI-7" target="LdKHLCZgjL9wfOJBAdJI-13" edge="1">
          <mxGeometry relative="1" as="geometry">
            <mxPoint x="190" y="670" as="targetPoint" />
          </mxGeometry>
        </mxCell>
        <mxCell id="LdKHLCZgjL9wfOJBAdJI-7" value="7.2 Lấy tên&lt;div&gt;nhà cung cấp&lt;/div&gt;" style="ellipse;whiteSpace=wrap;html=1;aspect=fixed;fontFamily=Helvetica;" parent="1" vertex="1">
          <mxGeometry x="10" y="630" width="80" height="80" as="geometry" />
        </mxCell>
        <mxCell id="LdKHLCZgjL9wfOJBAdJI-8" value="Dữ liệu&amp;nbsp;&lt;div&gt;mặt hàng&lt;/div&gt;" style="edgeStyle=orthogonalEdgeStyle;rounded=0;orthogonalLoop=1;jettySize=auto;html=1;" parent="1" source="LdKHLCZgjL9wfOJBAdJI-9" target="LdKHLCZgjL9wfOJBAdJI-16" edge="1">
          <mxGeometry x="-0.1589" relative="1" as="geometry">
            <mxPoint x="-90" y="876.457513110646" as="sourcePoint" />
            <mxPoint x="-90" y="1020" as="targetPoint" />
            <Array as="points">
              <mxPoint x="50" y="1020" />
              <mxPoint x="50" y="1020" />
            </Array>
            <mxPoint as="offset" />
          </mxGeometry>
        </mxCell>
        <mxCell id="IHlwPOQnN3DTkwchplO5-1" style="edgeStyle=orthogonalEdgeStyle;rounded=0;orthogonalLoop=1;jettySize=auto;html=1;" parent="1" source="LdKHLCZgjL9wfOJBAdJI-9" target="v0Nxj5Li30pcD4qbEYgx-4" edge="1">
          <mxGeometry relative="1" as="geometry" />
        </mxCell>
        <mxCell id="LdKHLCZgjL9wfOJBAdJI-9" value="7.4 Cập nhật&lt;div&gt;số lượng&lt;/div&gt;&lt;div&gt;mặt hàng&lt;/div&gt;" style="ellipse;whiteSpace=wrap;html=1;aspect=fixed;fontFamily=Helvetica;" parent="1" vertex="1">
          <mxGeometry x="10" y="930" width="80" height="80" as="geometry" />
        </mxCell>
        <mxCell id="LdKHLCZgjL9wfOJBAdJI-10" value="Thông tin&lt;div&gt;phiếu nhập&lt;/div&gt;" style="edgeStyle=orthogonalEdgeStyle;rounded=0;orthogonalLoop=1;jettySize=auto;html=1;entryX=0;entryY=0.5;entryDx=0;entryDy=0;" parent="1" source="LdKHLCZgjL9wfOJBAdJI-13" target="LdKHLCZgjL9wfOJBAdJI-17" edge="1">
          <mxGeometry x="-0.2" relative="1" as="geometry">
            <Array as="points">
              <mxPoint x="170" y="825" />
              <mxPoint x="170" y="825" />
            </Array>
            <mxPoint as="offset" />
          </mxGeometry>
        </mxCell>
        <mxCell id="LdKHLCZgjL9wfOJBAdJI-11" value="Thông báo" style="rounded=0;orthogonalLoop=1;jettySize=auto;html=1;exitX=0;exitY=0.5;exitDx=0;exitDy=0;" parent="1" source="v0Nxj5Li30pcD4qbEYgx-3" target="LdKHLCZgjL9wfOJBAdJI-5" edge="1">
          <mxGeometry relative="1" as="geometry" />
        </mxCell>
        <mxCell id="LdKHLCZgjL9wfOJBAdJI-12" style="edgeStyle=orthogonalEdgeStyle;rounded=0;orthogonalLoop=1;jettySize=auto;html=1;" parent="1" source="LdKHLCZgjL9wfOJBAdJI-13" target="LdKHLCZgjL9wfOJBAdJI-9" edge="1">
          <mxGeometry relative="1" as="geometry" />
        </mxCell>
        <mxCell id="LdKHLCZgjL9wfOJBAdJI-13" value="7.3 Lưu phiếu nhập hàng" style="ellipse;whiteSpace=wrap;html=1;aspect=fixed;fontFamily=Helvetica;" parent="1" vertex="1">
          <mxGeometry x="10" y="780" width="80" height="80" as="geometry" />
        </mxCell>
        <mxCell id="LdKHLCZgjL9wfOJBAdJI-14" value="" style="edgeStyle=orthogonalEdgeStyle;rounded=0;orthogonalLoop=1;jettySize=auto;html=1;" parent="1" source="LdKHLCZgjL9wfOJBAdJI-15" target="LdKHLCZgjL9wfOJBAdJI-7" edge="1">
          <mxGeometry relative="1" as="geometry" />
        </mxCell>
        <mxCell id="LdKHLCZgjL9wfOJBAdJI-15" value="Nhà cung cấp" style="html=1;dashed=0;whitespace=wrap;shape=partialRectangle;right=0;left=0;fontFamily=Helvetica;" parent="1" vertex="1">
          <mxGeometry y="540" width="100" height="30" as="geometry" />
        </mxCell>
        <mxCell id="LdKHLCZgjL9wfOJBAdJI-16" value="Mặt hàng" style="html=1;dashed=0;whitespace=wrap;shape=partialRectangle;right=0;left=0;fontFamily=Helvetica;" parent="1" vertex="1">
          <mxGeometry y="1100" width="100" height="30" as="geometry" />
        </mxCell>
        <mxCell id="LdKHLCZgjL9wfOJBAdJI-17" value="Phiếu nhập" style="html=1;dashed=0;whitespace=wrap;shape=partialRectangle;right=0;left=0;fontFamily=Helvetica;" parent="1" vertex="1">
          <mxGeometry x="210" y="810" width="100" height="30" as="geometry" />
        </mxCell>
        <mxCell id="v0Nxj5Li30pcD4qbEYgx-3" value="7.6 Export excel" style="ellipse;whiteSpace=wrap;html=1;aspect=fixed;fontFamily=Helvetica;" parent="1" vertex="1">
          <mxGeometry x="-160" y="795" width="80" height="80" as="geometry" />
        </mxCell>
        <mxCell id="IHlwPOQnN3DTkwchplO5-2" style="edgeStyle=orthogonalEdgeStyle;rounded=0;orthogonalLoop=1;jettySize=auto;html=1;" parent="1" source="v0Nxj5Li30pcD4qbEYgx-4" target="v0Nxj5Li30pcD4qbEYgx-3" edge="1">
          <mxGeometry relative="1" as="geometry" />
        </mxCell>
        <mxCell id="v0Nxj5Li30pcD4qbEYgx-4" value="7.5 Tính tổng tiền phiếu nhập" style="ellipse;whiteSpace=wrap;html=1;aspect=fixed;fontFamily=Helvetica;" parent="1" vertex="1">
          <mxGeometry x="-160" y="930" width="80" height="80" as="geometry" />
        </mxCell>
      </root>
    </mxGraphModel>
  </diagram>
  <diagram id="1HgEQBa5KcFDg_lColxl" name="DFD Mức 2 - 7">
    <mxGraphModel dx="2284" dy="884" grid="1" gridSize="10" guides="1" tooltips="1" connect="1" arrows="1" fold="1" page="1" pageScale="1" pageWidth="850" pageHeight="1100" math="0" shadow="0">
      <root>
        <mxCell id="0" />
        <mxCell id="1" parent="0" />
        <mxCell id="bgywYu0d5JMThWdBb4Yh-23" value="" style="rounded=0;whiteSpace=wrap;html=1;fontFamily=Helvetica;fontSize=12;dashed=1;" parent="1" vertex="1">
          <mxGeometry x="-290" y="600" width="480" height="370" as="geometry" />
        </mxCell>
        <mxCell id="bgywYu0d5JMThWdBb4Yh-24" style="edgeStyle=orthogonalEdgeStyle;rounded=0;orthogonalLoop=1;jettySize=auto;html=1;" parent="1" source="bgywYu0d5JMThWdBb4Yh-25" target="bgywYu0d5JMThWdBb4Yh-29" edge="1">
          <mxGeometry relative="1" as="geometry" />
        </mxCell>
        <mxCell id="bgywYu0d5JMThWdBb4Yh-25" value="7.1 Nhận danh sách&lt;div&gt;nhập hàng&lt;/div&gt;" style="ellipse;whiteSpace=wrap;html=1;aspect=fixed;fontFamily=Helvetica;" parent="1" vertex="1">
          <mxGeometry x="-160" y="630" width="80" height="80" as="geometry" />
        </mxCell>
        <mxCell id="bgywYu0d5JMThWdBb4Yh-26" value="Phiếu nhập" style="rounded=0;orthogonalLoop=1;jettySize=auto;html=1;" parent="1" source="bgywYu0d5JMThWdBb4Yh-27" target="bgywYu0d5JMThWdBb4Yh-25" edge="1">
          <mxGeometry relative="1" as="geometry" />
        </mxCell>
        <mxCell id="bgywYu0d5JMThWdBb4Yh-27" value="&lt;div&gt;Quản lý&lt;/div&gt;" style="html=1;whiteSpace=wrap;" parent="1" vertex="1">
          <mxGeometry x="-450" y="720" width="110" height="50" as="geometry" />
        </mxCell>
        <mxCell id="bgywYu0d5JMThWdBb4Yh-28" style="edgeStyle=orthogonalEdgeStyle;rounded=0;orthogonalLoop=1;jettySize=auto;html=1;" parent="1" source="bgywYu0d5JMThWdBb4Yh-29" target="bgywYu0d5JMThWdBb4Yh-37" edge="1">
          <mxGeometry relative="1" as="geometry">
            <mxPoint x="190" y="670" as="targetPoint" />
          </mxGeometry>
        </mxCell>
        <mxCell id="bgywYu0d5JMThWdBb4Yh-29" value="7.2 Lấy tên&lt;div&gt;nhà cung cấp&lt;/div&gt;" style="ellipse;whiteSpace=wrap;html=1;aspect=fixed;fontFamily=Helvetica;" parent="1" vertex="1">
          <mxGeometry x="10" y="630" width="80" height="80" as="geometry" />
        </mxCell>
        <mxCell id="bgywYu0d5JMThWdBb4Yh-32" value="Dữ liệu&amp;nbsp;&lt;div&gt;mặt hàng&lt;/div&gt;" style="edgeStyle=orthogonalEdgeStyle;rounded=0;orthogonalLoop=1;jettySize=auto;html=1;" parent="1" source="bgywYu0d5JMThWdBb4Yh-33" target="bgywYu0d5JMThWdBb4Yh-43" edge="1">
          <mxGeometry x="-0.1589" relative="1" as="geometry">
            <mxPoint x="-90" y="876.457513110646" as="sourcePoint" />
            <mxPoint x="-90" y="1020" as="targetPoint" />
            <Array as="points">
              <mxPoint x="-120" y="930" />
              <mxPoint x="-120" y="930" />
            </Array>
            <mxPoint as="offset" />
          </mxGeometry>
        </mxCell>
        <mxCell id="bgywYu0d5JMThWdBb4Yh-33" value="7.4 Cập nhật&lt;div&gt;số lượng&lt;/div&gt;&lt;div&gt;mặt hàng&lt;/div&gt;" style="ellipse;whiteSpace=wrap;html=1;aspect=fixed;fontFamily=Helvetica;" parent="1" vertex="1">
          <mxGeometry x="-160" y="810" width="80" height="80" as="geometry" />
        </mxCell>
        <mxCell id="bgywYu0d5JMThWdBb4Yh-34" value="Thông tin&lt;div&gt;nhập hàng&lt;/div&gt;" style="edgeStyle=orthogonalEdgeStyle;rounded=0;orthogonalLoop=1;jettySize=auto;html=1;" parent="1" source="bgywYu0d5JMThWdBb4Yh-37" target="bgywYu0d5JMThWdBb4Yh-44" edge="1">
          <mxGeometry x="-0.2" relative="1" as="geometry">
            <Array as="points">
              <mxPoint x="310" y="860" />
              <mxPoint x="310" y="860" />
            </Array>
            <mxPoint as="offset" />
          </mxGeometry>
        </mxCell>
        <mxCell id="bgywYu0d5JMThWdBb4Yh-35" value="Thông báo" style="rounded=0;orthogonalLoop=1;jettySize=auto;html=1;" parent="1" source="bgywYu0d5JMThWdBb4Yh-33" target="bgywYu0d5JMThWdBb4Yh-27" edge="1">
          <mxGeometry relative="1" as="geometry" />
        </mxCell>
        <mxCell id="bgywYu0d5JMThWdBb4Yh-36" style="edgeStyle=orthogonalEdgeStyle;rounded=0;orthogonalLoop=1;jettySize=auto;html=1;" parent="1" source="bgywYu0d5JMThWdBb4Yh-37" target="bgywYu0d5JMThWdBb4Yh-33" edge="1">
          <mxGeometry relative="1" as="geometry" />
        </mxCell>
        <mxCell id="bgywYu0d5JMThWdBb4Yh-37" value="7.3 Lưu phiếu nhập hàng" style="ellipse;whiteSpace=wrap;html=1;aspect=fixed;fontFamily=Helvetica;" parent="1" vertex="1">
          <mxGeometry x="10" y="810" width="80" height="80" as="geometry" />
        </mxCell>
        <mxCell id="bgywYu0d5JMThWdBb4Yh-38" value="" style="edgeStyle=orthogonalEdgeStyle;rounded=0;orthogonalLoop=1;jettySize=auto;html=1;" parent="1" source="bgywYu0d5JMThWdBb4Yh-39" target="bgywYu0d5JMThWdBb4Yh-29" edge="1">
          <mxGeometry relative="1" as="geometry" />
        </mxCell>
        <mxCell id="bgywYu0d5JMThWdBb4Yh-39" value="Nhà cung cấp" style="html=1;dashed=0;whitespace=wrap;shape=partialRectangle;right=0;left=0;fontFamily=Helvetica;" parent="1" vertex="1">
          <mxGeometry y="540" width="100" height="30" as="geometry" />
        </mxCell>
        <mxCell id="bgywYu0d5JMThWdBb4Yh-43" value="Mặt hàng" style="html=1;dashed=0;whitespace=wrap;shape=partialRectangle;right=0;left=0;fontFamily=Helvetica;" parent="1" vertex="1">
          <mxGeometry x="-170" y="980" width="100" height="30" as="geometry" />
        </mxCell>
        <mxCell id="bgywYu0d5JMThWdBb4Yh-44" value="Nhập hàng" style="html=1;dashed=0;whitespace=wrap;shape=partialRectangle;right=0;left=0;fontFamily=Helvetica;" parent="1" vertex="1">
          <mxGeometry x="210" y="830" width="100" height="30" as="geometry" />
        </mxCell>
      </root>
    </mxGraphModel>
  </diagram>
  <diagram id="-tAuL9-p4S3rSLAYTdqb" name="DFD Mức 2 - 8">
    <mxGraphModel dx="1434" dy="884" grid="1" gridSize="10" guides="1" tooltips="1" connect="1" arrows="1" fold="1" page="1" pageScale="1" pageWidth="850" pageHeight="1100" math="0" shadow="0">
      <root>
        <mxCell id="0" />
        <mxCell id="1" parent="0" />
        <mxCell id="K5cNVqfpYaZDTeP2fAyR-1" value="" style="rounded=0;whiteSpace=wrap;html=1;fontFamily=Helvetica;fontSize=12;dashed=1;" parent="1" vertex="1">
          <mxGeometry x="355" y="400" width="440" height="320" as="geometry" />
        </mxCell>
        <mxCell id="K5cNVqfpYaZDTeP2fAyR-2" style="edgeStyle=orthogonalEdgeStyle;rounded=0;orthogonalLoop=1;jettySize=auto;html=1;" parent="1" source="K5cNVqfpYaZDTeP2fAyR-3" target="K5cNVqfpYaZDTeP2fAyR-9" edge="1">
          <mxGeometry relative="1" as="geometry">
            <mxPoint x="635" y="480" as="targetPoint" />
          </mxGeometry>
        </mxCell>
        <mxCell id="K5cNVqfpYaZDTeP2fAyR-3" value="8.1 Nhận&lt;div&gt;thông tin&lt;/div&gt;&lt;div&gt;phiếu nhập&lt;/div&gt;" style="ellipse;whiteSpace=wrap;html=1;aspect=fixed;fontFamily=Helvetica;" parent="1" vertex="1">
          <mxGeometry x="465" y="440" width="80" height="80" as="geometry" />
        </mxCell>
        <mxCell id="K5cNVqfpYaZDTeP2fAyR-4" value="Phiếu nhập" style="rounded=0;orthogonalLoop=1;jettySize=auto;html=1;" parent="1" source="K5cNVqfpYaZDTeP2fAyR-5" target="K5cNVqfpYaZDTeP2fAyR-3" edge="1">
          <mxGeometry relative="1" as="geometry" />
        </mxCell>
        <mxCell id="K5cNVqfpYaZDTeP2fAyR-5" value="&lt;div&gt;Quản lý&lt;/div&gt;" style="html=1;whiteSpace=wrap;" parent="1" vertex="1">
          <mxGeometry x="210" y="535" width="110" height="50" as="geometry" />
        </mxCell>
        <mxCell id="K5cNVqfpYaZDTeP2fAyR-6" style="edgeStyle=orthogonalEdgeStyle;rounded=0;orthogonalLoop=1;jettySize=auto;html=1;" parent="1" source="K5cNVqfpYaZDTeP2fAyR-7" target="K5cNVqfpYaZDTeP2fAyR-9" edge="1">
          <mxGeometry relative="1" as="geometry" />
        </mxCell>
        <mxCell id="K5cNVqfpYaZDTeP2fAyR-7" value="Phiếu nhập" style="html=1;dashed=0;whitespace=wrap;shape=partialRectangle;right=0;left=0;fontFamily=Helvetica;" parent="1" vertex="1">
          <mxGeometry x="815" y="465" width="100" height="30" as="geometry" />
        </mxCell>
        <mxCell id="K5cNVqfpYaZDTeP2fAyR-8" style="rounded=0;orthogonalLoop=1;jettySize=auto;html=1;" parent="1" source="K5cNVqfpYaZDTeP2fAyR-9" target="K5cNVqfpYaZDTeP2fAyR-11" edge="1">
          <mxGeometry relative="1" as="geometry" />
        </mxCell>
        <mxCell id="K5cNVqfpYaZDTeP2fAyR-9" value="8.2 Lấy chi&amp;nbsp;&lt;div&gt;tiết phiếu nhập&lt;/div&gt;" style="ellipse;whiteSpace=wrap;html=1;aspect=fixed;fontFamily=Helvetica;" parent="1" vertex="1">
          <mxGeometry x="635" y="440" width="80" height="80" as="geometry" />
        </mxCell>
        <mxCell id="K5cNVqfpYaZDTeP2fAyR-10" value="Thông báo" style="rounded=0;orthogonalLoop=1;jettySize=auto;html=1;" parent="1" source="K5cNVqfpYaZDTeP2fAyR-11" target="K5cNVqfpYaZDTeP2fAyR-5" edge="1">
          <mxGeometry relative="1" as="geometry" />
        </mxCell>
        <mxCell id="K5cNVqfpYaZDTeP2fAyR-11" value="8.3 Tính toán lượng hàng&amp;nbsp;&lt;div&gt;và tổng tiền&lt;/div&gt;" style="ellipse;whiteSpace=wrap;html=1;aspect=fixed;fontFamily=Helvetica;" parent="1" vertex="1">
          <mxGeometry x="465" y="610" width="80" height="80" as="geometry" />
        </mxCell>
      </root>
    </mxGraphModel>
  </diagram>
</mxfile>
